<?xml version="1.0" encoding="UTF-8"?>
<svg version="1.1" xmlns="http://www.w3.org/2000/svg" width="221" height="234">
<path d="M0 0 C72.93 0 145.86 0 221 0 C221 77.22 221 154.44 221 234 C148.07 234 75.14 234 0 234 C0 156.78 0 79.56 0 0 Z " fill="#FCFDFD" transform="translate(0,0)"/>
<path d="M0 0 C0.69308762 0.00960754 1.38617523 0.01921509 2.1002655 0.02911377 C4.3836819 0.06200856 6.66690123 0.10237677 8.95019531 0.14282227 C10.53630892 0.1671327 12.12242975 0.1909758 13.70855713 0.21437073 C17.87774911 0.27711978 22.04681271 0.34621229 26.21588135 0.41662598 C30.47231209 0.48739245 34.72883365 0.55215962 38.98535156 0.61743164 C47.33311039 0.74632566 55.68072785 0.88247567 64.02832031 1.02172852 C64.02832031 5.64172852 64.02832031 10.26172852 64.02832031 15.02172852 C62.37832031 15.02172852 60.72832031 15.02172852 59.02832031 15.02172852 C58.59519531 14.07297852 58.16207031 13.12422852 57.71582031 12.14672852 C56.23529831 8.82130915 56.23529831 8.82130915 53.02832031 7.02172852 C50.71832031 6.69172852 48.40832031 6.36172852 46.02832031 6.02172852 C46.35832031 20.87172852 46.68832031 35.72172852 47.02832031 51.02172852 C48.34832031 51.68172852 49.66832031 52.34172852 51.02832031 53.02172852 C50.69832031 54.34172852 50.36832031 55.66172852 50.02832031 57.02172852 C43.75832031 57.02172852 37.48832031 57.02172852 31.02832031 57.02172852 C30.36832031 58.34172852 29.70832031 59.66172852 29.02832031 61.02172852 C28.36832031 61.02172852 27.70832031 61.02172852 27.02832031 61.02172852 C27.35832031 61.68172852 27.68832031 62.34172852 28.02832031 63.02172852 C31.65832031 63.02172852 35.28832031 63.02172852 39.02832031 63.02172852 C38.69832031 64.67172852 38.36832031 66.32172852 38.02832031 68.02172852 C37.36832031 68.02172852 36.70832031 68.02172852 36.02832031 68.02172852 C36.52332031 72.97172852 36.52332031 72.97172852 37.02832031 78.02172852 C35.04832031 78.02172852 33.06832031 78.02172852 31.02832031 78.02172852 C31.02832031 74.06172852 31.02832031 70.10172852 31.02832031 66.02172852 C29.70832031 66.02172852 28.38832031 66.02172852 27.02832031 66.02172852 C26.93744141 67.28629883 26.93744141 67.28629883 26.84472656 68.57641602 C26.7609375 69.67211914 26.67714844 70.76782227 26.59082031 71.89672852 C26.50960937 72.98727539 26.42839844 74.07782227 26.34472656 75.20141602 C26.02832031 78.02172852 26.02832031 78.02172852 25.02832031 80.02172852 C23.70832031 80.02172852 22.38832031 80.02172852 21.02832031 80.02172852 C20.03832031 79.03172852 20.03832031 79.03172852 19.02832031 78.02172852 C18.36832031 78.02172852 17.70832031 78.02172852 17.02832031 78.02172852 C17.02832031 78.68172852 17.02832031 79.34172852 17.02832031 80.02172852 C12.57332031 80.51672852 12.57332031 80.51672852 8.02832031 81.02172852 C8.02832031 82.01172852 8.02832031 83.00172852 8.02832031 84.02172852 C7.03832031 84.02172852 6.04832031 84.02172852 5.02832031 84.02172852 C3.8354462 80.14488764 3.02832031 77.10550928 3.02832031 73.02172852 C2.36832031 73.02172852 1.70832031 73.02172852 1.02832031 73.02172852 C0.69832031 71.70172852 0.36832031 70.38172852 0.02832031 69.02172852 C-0.30167969 72.32172852 -0.63167969 75.62172852 -0.97167969 79.02172852 C-3.34667969 79.64672852 -3.34667969 79.64672852 -5.97167969 80.02172852 C-6.63167969 79.36172852 -7.29167969 78.70172852 -7.97167969 78.02172852 C-8.63167969 78.02172852 -9.29167969 78.02172852 -9.97167969 78.02172852 C-10.46667969 79.01172852 -10.46667969 79.01172852 -10.97167969 80.02172852 C-12.29167969 80.02172852 -13.61167969 80.02172852 -14.97167969 80.02172852 C-15.46667969 81.01172852 -15.46667969 81.01172852 -15.97167969 82.02172852 C-17.95167969 81.36172852 -19.93167969 80.70172852 -21.97167969 80.02172852 C-21.97167969 74.41172852 -21.97167969 68.80172852 -21.97167969 63.02172852 C-16.6520372 63.02172852 -12.15317198 63.29450153 -6.97167969 64.02172852 C-6.64167969 63.36172852 -6.31167969 62.70172852 -5.97167969 62.02172852 C-4.65167969 62.02172852 -3.33167969 62.02172852 -1.97167969 62.02172852 C-1.97167969 61.03172852 -1.97167969 60.04172852 -1.97167969 59.02172852 C-0.48667969 58.52672852 -0.48667969 58.52672852 1.02832031 58.02172852 C-5.90167969 58.02172852 -12.83167969 58.02172852 -19.97167969 58.02172852 C-19.97167969 57.36172852 -19.97167969 56.70172852 -19.97167969 56.02172852 C-21.29167969 55.69172852 -22.61167969 55.36172852 -23.97167969 55.02172852 C-23.64167969 50.73172852 -23.31167969 46.44172852 -22.97167969 42.02172852 C-20.66167969 42.02172852 -18.35167969 42.02172852 -15.97167969 42.02172852 C-12.97167969 47.77172852 -12.97167969 47.77172852 -12.97167969 50.02172852 C-11.20160255 50.10286957 -9.43045871 50.16098356 -7.65917969 50.20922852 C-6.67304687 50.2440332 -5.68691406 50.27883789 -4.67089844 50.31469727 C-1.96311632 50.24663113 -1.96311632 50.24663113 -0.13964844 48.69360352 C1.68286907 46.08478246 1.40723339 44.1161853 1.02832031 41.02172852 C-0.43217293 38.31981601 -1.24143394 37.27209849 -4.15917969 36.27172852 C-4.75730469 36.18922852 -5.35542969 36.10672852 -5.97167969 36.02172852 C-6.30167969 34.70172852 -6.63167969 33.38172852 -6.97167969 32.02172852 C-7.99261719 31.92891602 -7.99261719 31.92891602 -9.03417969 31.83422852 C-14.20483049 30.40404851 -17.83013891 27.64197994 -20.90917969 23.27172852 C-22.4607809 18.52565423 -22.94200107 13.71932356 -21.22558594 8.94750977 C-19.66223583 6.54647673 -17.99758852 5.38564635 -15.59667969 3.83422852 C-14.44039062 3.07045898 -14.44039062 3.07045898 -13.26074219 2.29125977 C-8.85716948 -0.15099472 -4.99732438 -0.07974454 0 0 Z M64.02832031 61.02172852 C64.02832031 62.01172852 64.02832031 63.00172852 64.02832031 64.02172852 C64.68832031 64.02172852 65.34832031 64.02172852 66.02832031 64.02172852 C65.71894531 65.35204102 65.71894531 65.35204102 65.40332031 66.70922852 C64.99446166 70.32081328 65.57715176 71.77793999 67.02832031 75.02172852 C67.02832031 76.34172852 67.02832031 77.66172852 67.02832031 79.02172852 C65.60519531 79.70235352 65.60519531 79.70235352 64.15332031 80.39672852 C61.02518353 81.82411106 61.02518353 81.82411106 59.02832031 84.02172852 C55.90332031 83.64672852 55.90332031 83.64672852 53.02832031 83.02172852 C52.69832031 82.03172852 52.36832031 81.04172852 52.02832031 80.02172852 C51.69832031 79.36172852 51.36832031 78.70172852 51.02832031 78.02172852 C48.26555854 78.54441318 45.70223272 79.13042438 43.02832031 80.02172852 C40.40332031 79.33422852 40.40332031 79.33422852 38.02832031 78.02172852 C37.22753906 76.26782227 37.22753906 76.26782227 37.02832031 74.02172852 C38.02441406 71.44360352 38.02441406 71.44360352 39.46582031 68.77172852 C39.93890625 67.87969727 40.41199219 66.98766602 40.89941406 66.06860352 C41.27195313 65.39313477 41.64449219 64.71766602 42.02832031 64.02172852 C43.01832031 64.35172852 44.00832031 64.68172852 45.02832031 65.02172852 C45.02832031 64.36172852 45.02832031 63.70172852 45.02832031 63.02172852 C46.34832031 63.02172852 47.66832031 63.02172852 49.02832031 63.02172852 C49.28226563 63.72040039 49.53621094 64.41907227 49.79785156 65.13891602 C50.14203125 66.04899414 50.48621094 66.95907227 50.84082031 67.89672852 C51.17726562 68.80165039 51.51371094 69.70657227 51.86035156 70.63891602 C52.92481055 73.31598701 52.92481055 73.31598701 56.02832031 75.02172852 C56.02832031 76.01172852 56.02832031 77.00172852 56.02832031 78.02172852 C56.68832031 78.02172852 57.34832031 78.02172852 58.02832031 78.02172852 C58.02832031 72.74172852 58.02832031 67.46172852 58.02832031 62.02172852 C61.02832031 61.02172852 61.02832031 61.02172852 64.02832031 61.02172852 Z " fill="#F3F8F9" transform="translate(132.9716796875,75.978271484375)"/>
<path d="M0 0 C0.79006943 -0.00287018 1.58013885 -0.00574036 2.39414978 -0.00869751 C4.06265989 -0.01073749 5.73119395 -0.00521217 7.3996582 0.00732422 C9.959037 0.02340102 12.51684177 0.00746331 15.07617188 -0.01171875 C16.69661808 -0.00973672 18.3170633 -0.00589389 19.9375 0 C20.70522232 -0.00607269 21.47294464 -0.01214539 22.26393127 -0.0184021 C24.41821289 0.01025391 24.41821289 0.01025391 27.90234375 0.3984375 C30.32395554 4.03085519 30.1656637 6.70838766 30.08984375 10.8984375 C30.08919922 11.57519531 30.08855469 12.25195312 30.08789062 12.94921875 C30.06055978 16.02849353 29.88266884 18.45746224 28.90234375 21.3984375 C28.82212376 22.80668643 28.79468398 24.21840981 28.8046875 25.62890625 C28.80791016 26.43134766 28.81113281 27.23378906 28.81445312 28.06054688 C28.82283203 28.89392578 28.83121094 29.72730469 28.83984375 30.5859375 C28.84435547 31.43091797 28.84886719 32.27589844 28.85351562 33.14648438 C28.86528972 35.23049905 28.88322485 37.31447727 28.90234375 39.3984375 C26.29738202 40.70091836 24.39157822 40.52551623 21.47460938 40.52783203 C20.34003296 40.53098419 19.20545654 40.53413635 18.03649902 40.53738403 C16.19118591 40.53434769 16.19118591 40.53434769 14.30859375 40.53125 C13.05099243 40.53220673 11.79339111 40.53316345 10.49768066 40.53414917 C7.83451928 40.53483072 5.17144917 40.53347742 2.50830078 40.52880859 C-0.90828876 40.5231114 -4.32479975 40.52639137 -7.74138641 40.53238106 C-10.99556253 40.53685976 -14.24972911 40.53372563 -17.50390625 40.53125 C-18.73411499 40.53327423 -19.96432373 40.53529846 -21.23181152 40.53738403 C-22.93367615 40.53265579 -22.93367615 40.53265579 -24.66992188 40.52783203 C-25.67204712 40.52703644 -26.67417236 40.52624084 -27.70666504 40.52542114 C-30.09765625 40.3984375 -30.09765625 40.3984375 -32.09765625 39.3984375 C-32.17862855 36.96027165 -32.23812597 34.52479366 -32.28515625 32.0859375 C-32.31029297 31.39564453 -32.33542969 30.70535156 -32.36132812 29.99414062 C-32.40242297 27.15859666 -32.39963062 24.94199136 -31.00390625 22.4296875 C-28.12139397 20.87029561 -25.65487792 21.11455963 -22.41015625 21.2109375 C-21.23066406 21.23800781 -20.05117188 21.26507813 -18.8359375 21.29296875 C-17.93230469 21.32777344 -17.02867188 21.36257812 -16.09765625 21.3984375 C-16.09765625 20.7384375 -16.09765625 20.0784375 -16.09765625 19.3984375 C-17.08507813 19.42164062 -18.0725 19.44484375 -19.08984375 19.46875 C-20.37117188 19.48679687 -21.6525 19.50484375 -22.97265625 19.5234375 C-24.24882813 19.54664062 -25.525 19.56984375 -26.83984375 19.59375 C-30.09765625 19.3984375 -30.09765625 19.3984375 -32.09765625 17.3984375 C-32.36328125 14.2109375 -32.36328125 14.2109375 -32.34765625 10.3984375 C-32.3528125 9.1403125 -32.35796875 7.8821875 -32.36328125 6.5859375 C-32.09765625 3.3984375 -32.09765625 3.3984375 -30.09765625 1.3984375 C-27.55230484 1.19994679 -25.14048866 1.11991975 -22.59765625 1.1484375 C-21.90800781 1.14070313 -21.21835937 1.13296875 -20.5078125 1.125 C-15.35098918 1.14510457 -15.35098918 1.14510457 -13.09765625 3.3984375 C-12.90234375 6.65625 -12.90234375 6.65625 -12.97265625 10.5234375 C-12.99070312 11.80476563 -13.00875 13.08609375 -13.02734375 14.40625 C-13.05054687 15.39367187 -13.07375 16.38109375 -13.09765625 17.3984375 C-12.43765625 17.3984375 -11.77765625 17.3984375 -11.09765625 17.3984375 C-11.14986328 15.93470703 -11.14986328 15.93470703 -11.203125 14.44140625 C-11.23019531 13.16910156 -11.25726563 11.89679688 -11.28515625 10.5859375 C-11.33736328 8.68908203 -11.33736328 8.68908203 -11.390625 6.75390625 C-11.09765625 3.3984375 -11.09765625 3.3984375 -10.08544922 1.71362305 C-6.95121924 -0.36008082 -3.63485169 -0.02882773 0 0 Z " fill="#CFE1ED" transform="translate(71.09765625,74.6015625)"/>
<path d="M0 0 C1.15886719 0.01546875 2.31773438 0.0309375 3.51171875 0.046875 C6.3125 0.25 6.3125 0.25 7.3125 1.25 C8.77864348 1.31252808 10.2477197 1.3094916 11.71484375 1.27734375 C13.04999023 1.25897461 13.04999023 1.25897461 14.41210938 1.24023438 C16.30020831 1.20514926 18.18823789 1.16610273 20.07617188 1.12304688 C20.96755859 1.11208984 21.85894531 1.10113281 22.77734375 1.08984375 C24.00892212 1.06458618 24.00892212 1.06458618 25.26538086 1.03881836 C27.3125 1.25 27.3125 1.25 29.3125 3.25 C29.45747985 5.83064129 29.49927545 8.29943884 29.4375 10.875 C29.42847656 11.58140625 29.41945312 12.2878125 29.41015625 13.015625 C29.38657603 14.76056098 29.35070461 16.50532295 29.3125 18.25 C28.6525 18.25 27.9925 18.25 27.3125 18.25 C27.3125 18.91 27.3125 19.57 27.3125 20.25 C20.7125 20.25 14.1125 20.25 7.3125 20.25 C7.3125 23.88 7.3125 27.51 7.3125 31.25 C1.61422207 31.84981873 -3.82485416 30.21703814 -8.6875 27.25 C-9.4453125 25.25 -9.4453125 25.25 -9.6875 23.25 C-9.873125 22.5075 -10.05875 21.765 -10.25 21 C-10.394375 20.4225 -10.53875 19.845 -10.6875 19.25 C-13.44391416 19.74756092 -13.44391416 19.74756092 -15.6875 21.25 C-19.37920849 21.66782947 -21.23646681 21.51871414 -24.4609375 19.59765625 C-31.31465243 13.57750125 -31.31465243 13.57750125 -32.3984375 9.71875 C-32.43632813 7.38468722 -32.34990499 5.48798257 -31.6875 3.25 C-29.6875 1.25 -29.6875 1.25 -26.2109375 1.0546875 C-24.82799032 1.06798507 -23.44511346 1.09183768 -22.0625 1.125 C-21.35609375 1.13402344 -20.6496875 1.14304687 -19.921875 1.15234375 C-18.17693902 1.17592397 -16.43217705 1.21179539 -14.6875 1.25 C-14.6875 1.91 -14.6875 2.57 -14.6875 3.25 C-10.81249929 3.66968785 -10.81249929 3.66968785 -8.85546875 1.765625 C-5.84528242 -0.33879355 -3.6303082 -0.08130589 0 0 Z " fill="#CCE5ED" transform="translate(70.6875,116.75)"/>
<path d="M0 0 C1.68222656 0.00580078 1.68222656 0.00580078 3.3984375 0.01171875 C6.53642036 0.30424258 8.78973811 0.97982072 11.625 2.3125 C11.68558594 3.31152344 11.74617188 4.31054688 11.80859375 5.33984375 C11.93427734 7.27537109 11.93427734 7.27537109 12.0625 9.25 C12.14371094 10.53777344 12.22492187 11.82554688 12.30859375 13.15234375 C12.27419188 16.17273957 12.27419188 16.17273957 13.625 17.3125 C15.97487262 17.54777773 18.33056039 17.72636417 20.6875 17.875 C21.97785156 17.95878906 23.26820312 18.04257813 24.59765625 18.12890625 C26.09619141 18.21978516 26.09619141 18.21978516 27.625 18.3125 C27.625 18.9725 27.625 19.6325 27.625 20.3125 C26.25214844 20.38597656 26.25214844 20.38597656 24.8515625 20.4609375 C23.66304687 20.53570312 22.47453125 20.61046875 21.25 20.6875 C19.47496094 20.79191406 19.47496094 20.79191406 17.6640625 20.8984375 C14.51937681 21.01467346 14.51937681 21.01467346 12.625 23.3125 C12.295 28.2625 11.965 33.2125 11.625 38.3125 C31.755 38.3125 51.885 38.3125 72.625 38.3125 C72.625 33.3625 72.625 28.4125 72.625 23.3125 C72.955 23.3125 73.285 23.3125 73.625 23.3125 C73.625 27.6025 73.625 31.8925 73.625 36.3125 C74.285 36.3125 74.945 36.3125 75.625 36.3125 C75.625 37.3025 75.625 38.2925 75.625 39.3125 C74.965 39.3125 74.305 39.3125 73.625 39.3125 C73.295 40.9625 72.965 42.6125 72.625 44.3125 C71.965 43.9825 71.305 43.6525 70.625 43.3125 C69.11485504 43.24045969 67.60155514 43.22863934 66.08984375 43.25 C65.19845703 43.25773437 64.30707031 43.26546875 63.38867188 43.2734375 C61.9897168 43.29277344 61.9897168 43.29277344 60.5625 43.3125 C58.71750507 43.33789566 56.87244379 43.35896727 55.02734375 43.375 C54.20741943 43.38660156 53.38749512 43.39820313 52.54272461 43.41015625 C50.625 43.3125 50.625 43.3125 49.625 42.3125 C47.52470014 42.160177 45.41812861 42.09060628 43.3125 42.0625 C41.58580078 42.02382812 41.58580078 42.02382812 39.82421875 41.984375 C36.36900902 42.33875549 35.01785616 42.83930815 32.625 45.3125 C31.81553578 48.41447397 31.81553578 48.41447397 31.625 51.3125 C31.295 51.3125 30.965 51.3125 30.625 51.3125 C30.625 49.0025 30.625 46.6925 30.625 44.3125 C29.965 44.3125 29.305 44.3125 28.625 44.3125 C28.625 43.6525 28.625 42.9925 28.625 42.3125 C26.14539864 42.45274219 23.66647598 42.5994185 21.1875 42.75 C20.48044922 42.78931641 19.77339844 42.82863281 19.04492188 42.86914062 C15.53809581 42.78874438 15.53809581 42.78874438 12.625 44.3125 C12.52676004 45.78898876 12.49526481 47.27025417 12.5 48.75 C12.49742188 49.55308594 12.49484375 50.35617188 12.4921875 51.18359375 C12.48921674 53.36647931 12.48921674 53.36647931 13.625 55.3125 C12.14 54.8175 12.14 54.8175 10.625 54.3125 C10.295 53.6525 9.965 52.9925 9.625 52.3125 C8.14 51.8175 8.14 51.8175 6.625 51.3125 C6.150625 50.343125 5.67625 49.37375 5.1875 48.375 C3.57289981 45.21038363 2.88836918 44.43779972 -0.375 43.3125 C-0.375 42.3225 -0.375 41.3325 -0.375 40.3125 C-1.035 40.3125 -1.695 40.3125 -2.375 40.3125 C-2.375 39.6525 -2.375 38.9925 -2.375 38.3125 C-3.035 38.3125 -3.695 38.3125 -4.375 38.3125 C-5.22084998 36.75674022 -6.05118399 35.1925388 -6.875 33.625 C-7.3390625 32.75488281 -7.803125 31.88476562 -8.28125 30.98828125 C-9.81631621 27.23285142 -9.61403515 24.4811163 -8.8125 20.5625 C-8.668125 19.82 -8.52375 19.0775 -8.375 18.3125 C-8.705 17.9825 -9.035 17.6525 -9.375 17.3125 C-9.52715174 15.02437186 -9.59686492 12.73050872 -9.625 10.4375 C-9.65078125 9.18195313 -9.6765625 7.92640625 -9.703125 6.6328125 C-9.375 3.3125 -9.375 3.3125 -8.2578125 1.38671875 C-5.47345167 -0.20186886 -3.1821429 -0.04733164 0 0 Z " fill="#EEF6FA" transform="translate(27.375,75.6875)"/>
<path d="M0 0 C0 3.63 0 7.26 0 11 C-1.65 11 -3.3 11 -5 11 C-5.226875 10.401875 -5.45375 9.80375 -5.6875 9.1875 C-7.42429529 6.29284118 -8.9183036 5.36964285 -12 4 C-15.70893908 3.74900133 -15.70893908 3.74900133 -19 4 C-21.09491746 7.40424088 -21.49573145 10.03414842 -21 14 C-18.255331 17.2668566 -15.34933067 19.04145857 -11.5625 20.9375 C-7.24587707 23.2081935 -4.16214344 25.31083265 -1 29 C-0.67 29.33 -0.34 29.66 0 30 C0.49503375 36.12705706 0.91695812 41.95447804 -1.625 47.625 C-5.69779489 51.69779489 -8.92313478 54.2178109 -14.78515625 54.42578125 C-16.54459264 54.40864816 -18.30393276 54.37038992 -20.0625 54.3125 C-21.38991211 54.29799805 -21.38991211 54.29799805 -22.74414062 54.28320312 C-27.05102146 54.20889085 -30.72877425 53.85424515 -35 53 C-35 48.71 -35 44.42 -35 40 C-33.02 40 -31.04 40 -29 40 C-26 45.75 -26 45.75 -26 48 C-24.22992286 48.08114106 -22.45877902 48.13925505 -20.6875 48.1875 C-19.70136719 48.22230469 -18.71523437 48.25710937 -17.69921875 48.29296875 C-14.99143663 48.22490261 -14.99143663 48.22490261 -13.16796875 46.671875 C-11.34545124 44.06305395 -11.62108692 42.09445678 -12 39 C-13.46049325 36.29808749 -14.26975425 35.25036997 -17.1875 34.25 C-17.785625 34.1675 -18.38375 34.085 -19 34 C-19.33 32.68 -19.66 31.36 -20 30 C-21.0209375 29.9071875 -21.0209375 29.9071875 -22.0625 29.8125 C-27.23315081 28.38231999 -30.85845923 25.62025142 -33.9375 21.25 C-35.48238228 16.52447773 -36.02655192 11.65401227 -34.19921875 6.9296875 C-27.1394064 -4.43040143 -11.35934678 -2.19215464 0 0 Z " fill="#1B577B" transform="translate(146,78)"/>
<path d="M0 0 C15.84 0 31.68 0 48 0 C48 4.62 48 9.24 48 14 C46.35 14 44.7 14 43 14 C42.566875 13.05125 42.13375 12.1025 41.6875 11.125 C40.20697799 7.79958063 40.20697799 7.79958063 37 6 C34.69 5.67 32.38 5.34 30 5 C30.33 19.85 30.66 34.7 31 50 C32.32 50.66 33.64 51.32 35 52 C35 52.99 35 53.98 35 55 C27.41 55 19.82 55 12 55 C12 54.01 12 53.02 12 52 C13.98 51.34 15.96 50.68 18 50 C18 35.15 18 20.3 18 5 C9.62635474 6.01572826 9.62635474 6.01572826 7 9 C6.29289322 10.64991582 5.62056011 12.31562256 5 14 C3.35 14 1.7 14 0 14 C0 9.38 0 4.76 0 0 Z " fill="#295D7B" transform="translate(149,77)"/>
<path d="M0 0 C3.3 0 6.6 0 10 0 C9.67 1.65 9.34 3.3 9 5 C8.34 5 7.68 5 7 5 C7.33 8.3 7.66 11.6 8 15 C6.02 15 4.04 15 2 15 C2 11.04 2 7.08 2 3 C1.34 3 0.68 3 0 3 C0 2.01 0 1.02 0 0 Z M35 -2 C35 -1.01 35 -0.02 35 1 C35.66 1 36.32 1 37 1 C36.690625 2.3303125 36.690625 2.3303125 36.375 3.6875 C35.96614135 7.29908476 36.54883145 8.75621148 38 12 C38 13.32 38 14.64 38 16 C36.576875 16.680625 36.576875 16.680625 35.125 17.375 C31.99686321 18.80238254 31.99686321 18.80238254 30 21 C26.875 20.625 26.875 20.625 24 20 C23.67 19.01 23.34 18.02 23 17 C22.67 16.34 22.34 15.68 22 15 C19.23723823 15.52268466 16.6739124 16.10869587 14 17 C11.375 16.3125 11.375 16.3125 9 15 C8.19921875 13.24609375 8.19921875 13.24609375 8 11 C8.99609375 8.421875 8.99609375 8.421875 10.4375 5.75 C10.91058594 4.85796875 11.38367188 3.9659375 11.87109375 3.046875 C12.24363281 2.37140625 12.61617187 1.6959375 13 1 C13.99 1.33 14.98 1.66 16 2 C16 1.34 16 0.68 16 0 C17.32 0 18.64 0 20 0 C20.25394531 0.69867188 20.50789062 1.39734375 20.76953125 2.1171875 C21.11371094 3.02726563 21.45789063 3.93734375 21.8125 4.875 C22.14894531 5.77992188 22.48539063 6.68484375 22.83203125 7.6171875 C23.89649024 10.29425849 23.89649024 10.29425849 27 12 C27 12.99 27 13.98 27 15 C27.66 15 28.32 15 29 15 C29 9.72 29 4.44 29 -1 C32 -2 32 -2 35 -2 Z " fill="#DCEAF0" transform="translate(162,139)"/>
<path d="M0 0 C0.66 0 1.32 0 2 0 C2 14.85 2 29.7 2 45 C2.66 45.33 3.32 45.66 4 46 C3 47 3 47 0.49609375 47.09765625 C-0.51324219 47.08605469 -1.52257812 47.07445312 -2.5625 47.0625 C-3.57441406 47.05347656 -4.58632812 47.04445312 -5.62890625 47.03515625 C-6.41136719 47.02355469 -7.19382813 47.01195312 -8 47 C-8.00534168 42.53320785 -7.97162311 38.0688962 -7.90234375 33.6027832 C-7.88422253 32.08496926 -7.87660826 30.56699084 -7.87988281 29.04907227 C-7.88275166 26.86085761 -7.8473298 24.67602566 -7.8046875 22.48828125 C-7.79421387 21.17384033 -7.78374023 19.85939941 -7.77294922 18.50512695 C-6.7190423 13.72592871 -4.87647157 12.84173632 -1 10 C-0.08112387 7.36876179 -0.08112387 7.36876179 -0.125 4.6875 C-0.08632812 3.80449219 -0.04765625 2.92148438 -0.0078125 2.01171875 C-0.00394531 1.01591797 -0.00394531 1.01591797 0 0 Z " fill="#115379" transform="translate(176,82)"/>
<path d="M0 0 C1.8871875 0.00773437 1.8871875 0.00773437 3.8125 0.015625 C5.070625 0.01046875 6.32875 0.0053125 7.625 0 C10.8125 0.265625 10.8125 0.265625 12.8125 2.265625 C13.03805081 4.79355163 13.13688591 7.17618076 13.125 9.703125 C13.14111328 10.38439453 13.15722656 11.06566406 13.17382812 11.76757812 C13.1787474 16.79016243 13.1787474 16.79016243 11.29296875 19.23828125 C10.80441406 19.57730469 10.31585938 19.91632813 9.8125 20.265625 C10.3075 20.6575 10.8025 21.049375 11.3125 21.453125 C13.26843143 23.81654215 13.05457973 25.27997503 12.8125 28.265625 C10.875 27.953125 10.875 27.953125 8.8125 27.265625 C8.4825 26.275625 8.1525 25.285625 7.8125 24.265625 C5.81233534 23.05680404 5.81233534 23.05680404 3.8125 22.265625 C3.8125 21.275625 3.8125 20.285625 3.8125 19.265625 C3.1525 19.265625 2.4925 19.265625 1.8125 19.265625 C1.8125 18.605625 1.8125 17.945625 1.8125 17.265625 C1.1525 17.265625 0.4925 17.265625 -0.1875 17.265625 C-1.03334998 15.70986522 -1.86368399 14.1456638 -2.6875 12.578125 C-3.1515625 11.70800781 -3.615625 10.83789062 -4.09375 9.94140625 C-5.25292365 7.10557072 -5.55898754 5.29428035 -5.1875 2.265625 C-3.1875 0.265625 -3.1875 0.265625 0 0 Z " fill="#8198B3" transform="translate(23.1875,96.734375)"/>
<path d="M0 0 C0.69416016 -0.01224609 1.38832031 -0.02449219 2.10351562 -0.03710938 C3.92470901 -0.04239842 5.7453692 0.06580793 7.5625 0.1875 C9.5625 2.1875 9.5625 2.1875 9.7578125 5.6640625 C9.74451493 7.04700968 9.72066232 8.42988654 9.6875 9.8125 C9.67847656 10.51890625 9.66945313 11.2253125 9.66015625 11.953125 C9.63657603 13.69806098 9.60070461 15.44282295 9.5625 17.1875 C6.59208551 18.67270725 3.86485553 18.3580822 0.5625 18.375 C-1.3246875 18.39626953 -1.3246875 18.39626953 -3.25 18.41796875 C-6.4375 18.1875 -6.4375 18.1875 -8.4375 16.1875 C-8.60913731 13.62457683 -8.67014558 11.18404143 -8.625 8.625 C-8.62435547 7.92697266 -8.62371094 7.22894531 -8.62304688 6.50976562 C-8.55942878 -0.77804055 -6.59138036 0.00608622 0 0 Z " fill="#124E73" transform="translate(90.4375,96.8125)"/>
<path d="M0 0 C1.15628906 -0.00257812 2.31257813 -0.00515625 3.50390625 -0.0078125 C6.4375 0.125 6.4375 0.125 8.4375 1.125 C8.46441685 3.58340605 8.48429802 6.04151882 8.5 8.5 C8.50837891 9.19867188 8.51675781 9.89734375 8.52539062 10.6171875 C8.55078125 15.8984375 8.55078125 15.8984375 7.4375 18.125 C4.97887599 18.17883848 2.5214245 18.21859038 0.0625 18.25 C-0.98550781 18.27513672 -0.98550781 18.27513672 -2.0546875 18.30078125 C-3.89147486 18.31844267 -5.72851963 18.22803261 -7.5625 18.125 C-9.5625 16.125 -9.5625 16.125 -9.7578125 12.6484375 C-9.74451493 11.26549032 -9.72066232 9.88261346 -9.6875 8.5 C-9.67847656 7.79359375 -9.66945313 7.0871875 -9.66015625 6.359375 C-9.63657603 4.61443902 -9.60070461 2.86967705 -9.5625 1.125 C-6.18481526 -0.00089491 -3.55437928 -0.00794275 0 0 Z " fill="#4B7190" transform="translate(91.5625,75.875)"/>
<path d="M0 0 C1.15628906 0.00386719 2.31257813 0.00773437 3.50390625 0.01171875 C6.4375 0.3125 6.4375 0.3125 8.4375 2.3125 C8.60913731 4.87542317 8.67014558 7.31595857 8.625 9.875 C8.62435547 10.57302734 8.62371094 11.27105469 8.62304688 11.99023438 C8.57781158 17.17218842 8.57781158 17.17218842 7.4375 18.3125 C4.7601862 18.41231214 2.11445825 18.45129875 -0.5625 18.4375 C-1.68785156 18.44330078 -1.68785156 18.44330078 -2.8359375 18.44921875 C-8.43588947 18.43911053 -8.43588947 18.43911053 -9.5625 17.3125 C-9.71465174 15.02437186 -9.78436492 12.73050872 -9.8125 10.4375 C-9.83828125 9.18195313 -9.8640625 7.92640625 -9.890625 6.6328125 C-9.5625 3.3125 -9.5625 3.3125 -8.45703125 1.38671875 C-5.62181528 -0.22087793 -3.23125675 -0.04693446 0 0 Z " fill="#839BB6" transform="translate(27.5625,75.6875)"/>
<path d="M0 0 C1.15628906 -0.00515625 2.31257813 -0.0103125 3.50390625 -0.015625 C6.4375 0.25 6.4375 0.25 8.4375 2.25 C8.58247985 4.83064129 8.62427545 7.29943884 8.5625 9.875 C8.55347656 10.58140625 8.54445313 11.2878125 8.53515625 12.015625 C8.51157603 13.76056098 8.47570461 15.50532295 8.4375 17.25 C5.46510209 18.73619895 2.74130422 18.38177009 -0.5625 18.375 C-2.4496875 18.37886719 -2.4496875 18.37886719 -4.375 18.3828125 C-7.5625 18.25 -7.5625 18.25 -9.5625 17.25 C-9.64326963 14.79101345 -9.70287143 12.33466258 -9.75 9.875 C-9.77513672 9.17632812 -9.80027344 8.47765625 -9.82617188 7.7578125 C-9.85546875 5.7265625 -9.85546875 5.7265625 -9.5625 2.25 C-5.97967765 -0.13854824 -4.24856967 -0.01898802 0 0 Z " fill="#125077" transform="translate(91.5625,117.75)"/>
<path d="M0 0 C1.8871875 0.00773437 1.8871875 0.00773437 3.8125 0.015625 C5.070625 0.01046875 6.32875 0.0053125 7.625 0 C10.8125 0.265625 10.8125 0.265625 12.8125 2.265625 C13.078125 5.453125 13.078125 5.453125 13.0625 9.265625 C13.06765625 10.52375 13.0728125 11.781875 13.078125 13.078125 C12.8125 16.265625 12.8125 16.265625 10.8125 18.265625 C7.625 18.49609375 7.625 18.49609375 3.8125 18.453125 C2.554375 18.44667969 1.29625 18.44023438 0 18.43359375 C-3.1875 18.265625 -3.1875 18.265625 -5.1875 17.265625 C-5.24133848 14.80700099 -5.28109038 12.3495495 -5.3125 9.890625 C-5.32925781 9.19195312 -5.34601562 8.49328125 -5.36328125 7.7734375 C-5.38094267 5.93665014 -5.29053261 4.09960537 -5.1875 2.265625 C-3.1875 0.265625 -3.1875 0.265625 0 0 Z " fill="#175378" transform="translate(44.1875,96.734375)"/>
<path d="M0 0 C0.70253906 0.00386719 1.40507813 0.00773437 2.12890625 0.01171875 C2.83144531 0.00785156 3.53398438 0.00398438 4.2578125 0 C9.50229247 0.01010497 9.50229247 0.01010497 10.62890625 1.13671875 C10.75543823 3.62910444 10.8141045 6.08142316 10.81640625 8.57421875 C10.82865234 9.26837891 10.84089844 9.96253906 10.85351562 10.67773438 C10.85880467 12.49892776 10.75059832 14.31958795 10.62890625 16.13671875 C8.62890625 18.13671875 8.62890625 18.13671875 5.37109375 18.33203125 C4.09492187 18.30882813 2.81875 18.285625 1.50390625 18.26171875 C-0.41808594 18.23464844 -0.41808594 18.23464844 -2.37890625 18.20703125 C-3.86003906 18.17222656 -3.86003906 18.17222656 -5.37109375 18.13671875 C-6.89600504 15.08689617 -6.51470809 11.91549336 -6.49609375 8.57421875 C-6.49996094 7.87619141 -6.50382812 7.17816406 -6.5078125 6.45898438 C-6.49575165 0.24161602 -6.21334087 0.01197176 0 0 Z " fill="#105076" transform="translate(67.37109375,75.86328125)"/>
<path d="M0 0 C1.37376679 0.00398964 2.74753489 0.01873698 4.12109375 0.04296875 C4.81912109 0.04361328 5.51714844 0.04425781 6.23632812 0.04492188 C11.41828217 0.09015717 11.41828217 0.09015717 12.55859375 1.23046875 C12.65834407 3.74182979 12.69741558 6.2195029 12.68359375 8.73046875 C12.68939453 9.78427734 12.68939453 9.78427734 12.6953125 10.859375 C12.68520753 16.10385497 12.68520753 16.10385497 11.55859375 17.23046875 C9.26871165 17.33002884 6.97563438 17.36015595 4.68359375 17.35546875 C3.42804687 17.35804687 2.1725 17.360625 0.87890625 17.36328125 C-2.44140625 17.23046875 -2.44140625 17.23046875 -5.44140625 16.23046875 C-5.49525146 13.93905589 -5.53412712 11.64728687 -5.56640625 9.35546875 C-5.58960938 8.07929687 -5.6128125 6.803125 -5.63671875 5.48828125 C-5.36110853 0.89110285 -4.57379678 0.30630421 0 0 Z " fill="#7A95B4" transform="translate(44.44140625,75.76953125)"/>
<path d="M0 0 C2.29141286 -0.05384521 4.58318188 -0.09272087 6.875 -0.125 C8.78925781 -0.15980469 8.78925781 -0.15980469 10.7421875 -0.1953125 C14 0 14 0 16 2 C16.265625 5.1875 16.265625 5.1875 16.25 9 C16.25515625 10.258125 16.2603125 11.51625 16.265625 12.8125 C16 16 16 16 14 18 C10.77734375 18.23046875 10.77734375 18.23046875 6.9375 18.1875 C5.66777344 18.18105469 4.39804688 18.17460937 3.08984375 18.16796875 C0 18 0 18 -1 17 C-1.09956009 14.7101179 -1.1296872 12.41704063 -1.125 10.125 C-1.12757812 8.86945313 -1.13015625 7.61390625 -1.1328125 6.3203125 C-1 3 -1 3 0 0 Z " fill="#115379" transform="translate(62,118)"/>
<path d="M0 0 C1.8871875 0.00773437 1.8871875 0.00773437 3.8125 0.015625 C5.070625 0.01046875 6.32875 0.0053125 7.625 0 C10.8125 0.265625 10.8125 0.265625 12.8125 2.265625 C13.04296875 5.48828125 13.04296875 5.48828125 13 9.328125 C12.99355469 10.59785156 12.98710938 11.86757812 12.98046875 13.17578125 C12.8125 16.265625 12.8125 16.265625 11.8125 17.265625 C9.5226179 17.36518509 7.22954063 17.3953122 4.9375 17.390625 C3.68195313 17.39320312 2.42640625 17.39578125 1.1328125 17.3984375 C-2.1875 17.265625 -2.1875 17.265625 -5.1875 16.265625 C-5.24134521 13.97421214 -5.28022087 11.68244312 -5.3125 9.390625 C-5.33570313 8.11445312 -5.35890625 6.83828125 -5.3828125 5.5234375 C-5.1175436 1.09875225 -4.41578597 0.36798216 0 0 Z " fill="#6483A5" transform="translate(65.1875,96.734375)"/>
<path d="M0 0 C1.38294718 0.01329757 2.76582404 0.03715018 4.1484375 0.0703125 C4.85484375 0.07933594 5.56125 0.08835937 6.2890625 0.09765625 C8.03399848 0.12123647 9.77876045 0.15710789 11.5234375 0.1953125 C13.00864475 3.16572699 12.6940197 5.89295697 12.7109375 9.1953125 C12.72511719 10.4534375 12.73929688 11.7115625 12.75390625 13.0078125 C12.5234375 16.1953125 12.5234375 16.1953125 10.5234375 18.1953125 C5.64752987 18.67197964 1.40010739 17.5893965 -2.5390625 14.6953125 C-5.28568351 12.07584987 -5.94154233 10.22421917 -6.0390625 6.4453125 C-5.79455461 1.8075499 -4.93902661 0.2774734 0 0 Z " fill="#6181A4" transform="translate(44.4765625,117.8046875)"/>
<path d="M0 0 C0 3.63 0 7.26 0 11 C-1.65 11 -3.3 11 -5 11 C-5.226875 10.401875 -5.45375 9.80375 -5.6875 9.1875 C-7.42429529 6.29284118 -8.9183036 5.36964285 -12 4 C-15.70893908 3.74900133 -15.70893908 3.74900133 -19 4 C-21.09678815 7.40728075 -21.4133256 10.03207421 -21 14 C-19.62073227 16.34261608 -19.62073227 16.34261608 -18 18 C-19.98 17.34 -21.96 16.68 -24 16 C-24.125 9.25 -24.125 9.25 -23 7 C-23.66 7 -24.32 7 -25 7 C-25.66 8.65 -26.32 10.3 -27 12 C-27.66 10.68 -28.32 9.36 -29 8 C-29.66 8 -30.32 8 -31 8 C-32.04976964 11.14930893 -32.10131595 13.38814456 -32.0625 16.6875 C-32.05347656 17.68136719 -32.04445313 18.67523438 -32.03515625 19.69921875 C-32.02355469 20.45847656 -32.01195313 21.21773437 -32 22 C-34 21 -34 21 -35 18 C-35.11687338 16.52413385 -35.17501742 15.04293388 -35.1875 13.5625 C-35.20167969 12.80066406 -35.21585937 12.03882812 -35.23046875 11.25390625 C-34.8836532 7.86216775 -33.73301565 5.81529292 -31.46875 3.296875 C-22.71382545 -3.58199429 -10.39546467 -2.0061423 0 0 Z M-29 5 C-28.67 5.99 -28.34 6.98 -28 8 C-27.67 7.01 -27.34 6.02 -27 5 C-27.66 5 -28.32 5 -29 5 Z " fill="#245675" transform="translate(146,78)"/>
<path d="M0 0 C11.88 0 23.76 0 36 0 C35.67 0.66 35.34 1.32 35 2 C29.72 2 24.44 2 19 2 C19.144375 4.454375 19.28875 6.90875 19.4375 9.4375 C19.48060303 10.21150146 19.52370605 10.98550293 19.56811523 11.78295898 C19.49795579 15.18161081 19.49795579 15.18161081 21 18 C23.52596259 18.23653523 26.03107207 18.42173692 28.5625 18.5625 C29.62887695 18.62727539 29.62887695 18.62727539 30.71679688 18.69335938 C32.47761912 18.79971777 34.2387832 18.90038846 36 19 C36.495 21.475 36.495 21.475 37 24 C36.34 23.67 35.68 23.34 35 23 C32.4676428 22.90226998 29.96914408 22.86089613 27.4375 22.875 C26.73947266 22.87113281 26.04144531 22.86726563 25.32226562 22.86328125 C21.87251102 22.56077485 21.87251102 22.56077485 19 24 C18.76518307 26.18292774 18.58636677 28.37203174 18.4375 30.5625 C18.35371094 31.76003906 18.26992187 32.95757812 18.18359375 34.19140625 C18.09271484 35.58166016 18.09271484 35.58166016 18 37 C17.34 37 16.68 37 16 37 C15.93941406 36.11957031 15.87882812 35.23914063 15.81640625 34.33203125 C15.69072266 32.58986328 15.69072266 32.58986328 15.5625 30.8125 C15.48128906 29.66394531 15.40007812 28.51539062 15.31640625 27.33203125 C15.08342578 24.14058525 15.08342578 24.14058525 14.46875 21.625 C13.78758276 17.81046343 13.89537617 14.0531717 13.9375 10.1875 C13.94201172 9.39923828 13.94652344 8.61097656 13.95117188 7.79882812 C13.96288688 5.86585239 13.98082002 3.93291607 14 2 C7.07 1.505 7.07 1.505 0 1 C0 0.67 0 0.34 0 0 Z M37 3 C37.33 3 37.66 3 38 3 C38 7.95 38 12.9 38 18 C37.01 18.495 37.01 18.495 36 19 C36.33 13.72 36.66 8.44 37 3 Z " fill="#E2F3F9" transform="translate(63,75)"/>
<path d="M0 0 C1.15628906 -0.00515625 2.31257813 -0.0103125 3.50390625 -0.015625 C6.4375 0.25 6.4375 0.25 8.4375 2.25 C8.6328125 5.0703125 8.6328125 5.0703125 8.5625 8.375 C8.54445313 9.47070312 8.52640625 10.56640625 8.5078125 11.6953125 C8.48460938 12.53835937 8.46140625 13.38140625 8.4375 14.25 C6.37472893 14.10805236 4.31228969 13.96127784 2.25 13.8125 C1.10144531 13.73128906 -0.04710938 13.65007812 -1.23046875 13.56640625 C-4.07848171 13.29596188 -6.77460482 12.87478253 -9.5625 12.25 C-9.64340971 10.62581255 -9.70164995 9.00048255 -9.75 7.375 C-9.78480469 6.47007812 -9.81960937 5.56515625 -9.85546875 4.6328125 C-9.75878906 3.84648437 -9.66210938 3.06015625 -9.5625 2.25 C-5.97967765 -0.13854824 -4.24856967 -0.01898802 0 0 Z " fill="#265D7E" transform="translate(91.5625,138.75)"/>
<path d="M0 0 C0.99 0.33 1.98 0.66 3 1 C4.10307138 5.55016945 5.22951639 10.61781199 3 14.9375 C-0.29038745 16.68551833 -3.44593095 16.8419348 -7 16 C-10.0625 13.4375 -10.0625 13.4375 -12 10 C-12 6.4530632 -11.64099902 4.16888056 -9.9375 1.0625 C-6.79634803 -0.66006721 -3.50281237 -0.36723033 0 0 Z " fill="#B9CFDD" transform="translate(147,139)"/>
<path d="M0 0 C0.99 0.495 0.99 0.495 2 1 C1.34 1.66 0.68 2.32 0 3 C0 2.01 0 1.02 0 0 Z M4 2 C4.66 2 5.32 2 6 2 C5.8453125 3.8871875 5.8453125 3.8871875 5.6875 5.8125 C5.60873756 7.99912353 5.60873756 7.99912353 6 10 C8.35589996 11.88051585 8.35589996 11.88051585 11 13 C12.25541557 16.76624671 11.37061958 18.37188934 10 22 C8.68 22 7.36 22 6 22 C6 21.34 6 20.68 6 20 C4.68 19.67 3.36 19.34 2 19 C2 18.34 2 17.68 2 17 C0.35 17 -1.3 17 -3 17 C-4.16983345 14.6603331 -4.1661241 13.16608473 -4.1875 10.5625 C-4.20167969 9.78003906 -4.21585937 8.99757813 -4.23046875 8.19140625 C-4 6 -4 6 -2 3 C-1.34 3 -0.68 3 0 3 C0.66 3.99 1.32 4.98 2 6 C2.66 4.68 3.32 3.36 4 2 Z " fill="#154F72" transform="translate(117,83)"/>
<path d="M0 0 C7 0 7 0 9.9375 0.875 C12.47318417 3.48752308 12.35532338 4.50322518 12.4375 8.0625 C12.32228916 12.67771084 12.32228916 12.67771084 10 15 C7.6171875 15.1953125 7.6171875 15.1953125 4.875 15.125 C2.461875 15.063125 2.461875 15.063125 0 15 C0 10.05 0 5.1 0 0 Z " fill="#4D7185" transform="translate(111,139)"/>
<path d="M0 0 C4.23039958 1.74192924 8.1273638 3.53559514 12 6 C11.01 6.495 11.01 6.495 10 7 C9.67 7.66 9.34 8.32 9 9 C7.68 8.34 6.36 7.68 5 7 C5.57584432 9.38564077 6.22227595 11.66682784 7 14 C4.61435923 13.42415568 2.33317216 12.77772405 0 12 C0 12.66 0 13.32 0 14 C2.65228812 15.07525194 5.28368454 16.09456151 8 17 C9.80162669 19.52227736 10.04839136 20.64513 9.625 23.75 C9.315625 24.86375 9.315625 24.86375 9 26 C8.34 26 7.68 26 7 26 C6.71125 24.88625 6.4225 23.7725 6.125 22.625 C5.30758671 18.99708908 5.30758671 18.99708908 3 17 C0.93125966 16.3574765 0.93125966 16.3574765 -1 16 C-1.33 14.68 -1.66 13.36 -2 12 C-2.680625 11.938125 -3.36125 11.87625 -4.0625 11.8125 C-7.95451162 10.73598615 -11.03444754 8.74334968 -14 6 C-14 5.34 -14 4.68 -14 4 C-12.35 4 -10.7 4 -9 4 C-8.67 4.66 -8.34 5.32 -8 6 C-7.01 6.33 -6.02 6.66 -5 7 C-5 7.66 -5 8.32 -5 9 C-3.68 8.67 -2.36 8.34 -1 8 C-0.67 5.36 -0.34 2.72 0 0 Z " fill="#1C5576" transform="translate(128,96)"/>
<path d="M0 0 C0 0.99 0 1.98 0 3 C0.66 3 1.32 3 2 3 C1.79375 3.886875 1.5875 4.77375 1.375 5.6875 C0.96614135 9.29908476 1.54883145 10.75621148 3 14 C3 15.32 3 16.64 3 18 C-0.33333333 19.66666667 -3.66666667 21.33333333 -7 23 C-6.67 15.74 -6.34 8.48 -6 1 C-3 0 -3 0 0 0 Z " fill="#D7E5ED" transform="translate(197,137)"/>
<path d="M0 0 C0 4.62 0 9.24 0 14 C-2.64 14 -5.28 14 -8 14 C-8.33 14.66 -8.66 15.32 -9 16 C-10.32 16 -11.64 16 -13 16 C-13.33 16.66 -13.66 17.32 -14 18 C-15.98 17.34 -17.96 16.68 -20 16 C-20 15.34 -20 14.68 -20 14 C-19.28972656 13.93941406 -18.57945313 13.87882813 -17.84765625 13.81640625 C-16.92855469 13.73261719 -16.00945312 13.64882812 -15.0625 13.5625 C-14.14597656 13.48128906 -13.22945313 13.40007812 -12.28515625 13.31640625 C-10.03840268 13.23955024 -10.03840268 13.23955024 -9 12 C-8.76712992 10.31816052 -8.58735834 8.6287584 -8.4375 6.9375 C-8.35371094 6.01839844 -8.26992187 5.09929687 -8.18359375 4.15234375 C-8.12300781 3.44207031 -8.06242187 2.73179687 -8 2 C-8.99 1.67 -9.98 1.34 -11 1 C-9 0.5 -9 0.5 -7 0 C-6.319375 -0.20625 -5.63875 -0.4125 -4.9375 -0.625 C-3 -1 -3 -1 0 0 Z " fill="#EBF4F9" transform="translate(131,140)"/>
<path d="M0 0 C0.70253906 0.00386719 1.40507813 0.00773437 2.12890625 0.01171875 C2.83144531 0.00785156 3.53398438 0.00398438 4.2578125 0 C9.50229247 0.01010497 9.50229247 0.01010497 10.62890625 1.13671875 C10.75543823 3.62910444 10.8141045 6.08142316 10.81640625 8.57421875 C10.82865234 9.26837891 10.84089844 9.96253906 10.85351562 10.67773438 C10.85880467 12.49892776 10.75059832 14.31958795 10.62890625 16.13671875 C8.62890625 18.13671875 8.62890625 18.13671875 5.37109375 18.33203125 C4.09492187 18.30882813 2.81875 18.285625 1.50390625 18.26171875 C-0.41808594 18.23464844 -0.41808594 18.23464844 -2.37890625 18.20703125 C-3.86003906 18.17222656 -3.86003906 18.17222656 -5.37109375 18.13671875 C-6.89600504 15.08689617 -6.51470809 11.91549336 -6.49609375 8.57421875 C-6.49996094 7.87619141 -6.50382812 7.17816406 -6.5078125 6.45898438 C-6.49575165 0.24161602 -6.21334087 0.01197176 0 0 Z M-4.37109375 3.13671875 C-4.37109375 7.42671875 -4.37109375 11.71671875 -4.37109375 16.13671875 C0.24890625 16.13671875 4.86890625 16.13671875 9.62890625 16.13671875 C8.96890625 11.84671875 8.30890625 7.55671875 7.62890625 3.13671875 C3.66890625 3.13671875 -0.29109375 3.13671875 -4.37109375 3.13671875 Z " fill="#2F5B77" transform="translate(67.37109375,75.86328125)"/>
<path d="M0 0 C1.98 0 3.96 0 6 0 C9 5.75 9 5.75 9 8 C10.7492214 8.08142927 12.49954542 8.13938541 14.25 8.1875 C15.22453125 8.22230469 16.1990625 8.25710937 17.203125 8.29296875 C20.37468742 7.96075202 21.67040307 7.11327721 24 5 C22.7096828 7.87839991 21.54593619 10.09054786 19 12 C16.51953125 11.85546875 16.51953125 11.85546875 13.8125 11.1875 C12.91144531 10.97480469 12.01039062 10.76210937 11.08203125 10.54296875 C10.39496094 10.36378906 9.70789063 10.18460938 9 10 C9 10.99 9 11.98 9 13 C6.03 13 3.06 13 0 13 C0 8.71 0 4.42 0 0 Z " fill="#2F5F7F" transform="translate(111,118)"/>
<path d="M0 0 C1.74796875 -0.02126953 1.74796875 -0.02126953 3.53125 -0.04296875 C6.5 0.1875 6.5 0.1875 8.5 2.1875 C8.625 5.8125 8.625 5.8125 8.5 9.1875 C2.80172207 9.78731873 -2.63735416 8.15453814 -7.5 5.1875 C-8.29296875 3.046875 -8.29296875 3.046875 -8.5 1.1875 C-5.65161879 -0.2366906 -3.17212092 0.01754492 0 0 Z " fill="#7D92A7" transform="translate(69.5,138.8125)"/>
<path d="M0 0 C2.31 0 4.62 0 7 0 C7.07589394 6.37199294 7.1285335 12.74386991 7.16479492 19.11621094 C7.179907 21.28520056 7.20039735 23.4541595 7.22631836 25.62304688 C7.26259534 28.73575396 7.2797019 31.84805805 7.29296875 34.9609375 C7.30845261 35.934935 7.32393646 36.9089325 7.33988953 37.91244507 C7.34011612 38.81322784 7.34034271 39.71401062 7.34057617 40.64208984 C7.34723801 41.43706879 7.35389984 42.23204773 7.36076355 43.05111694 C7.24171158 43.69424835 7.12265961 44.33737976 7 45 C4 47 4 47 1 47 C0.67 47.99 0.34 48.98 0 50 C0 48.35 0 46.7 0 45 C0.99 45.33 1.98 45.66 3 46 C4.00077286 40.93559075 4.2118961 36.02380497 4.31640625 30.8828125 C4.33718735 30.02565643 4.35796844 29.16850037 4.37937927 28.28536987 C4.44441261 25.56532286 4.50354341 22.84518483 4.5625 20.125 C4.60572924 18.27342834 4.6493449 16.42186566 4.69335938 14.5703125 C4.80004621 10.04696669 4.90144194 5.52352993 5 1 C3.35 1 1.7 1 0 1 C0 0.67 0 0.34 0 0 Z " fill="#B9D0DF" transform="translate(160,82)"/>
<path d="M0 0 C0.33 0 0.66 0 1 0 C1 4.62 1 9.24 1 14 C1.66 14 2.32 14 3 14 C3 9.38 3 4.76 3 0 C3.33 0 3.66 0 4 0 C4.24927162 2.58281438 4.47499275 5.16412228 4.6875 7.75 C4.76033203 8.47960937 4.83316406 9.20921875 4.90820312 9.9609375 C5.26952636 14.63688528 4.80619802 16.40806653 2 20 C1.63010978 22.81229514 1.39961941 25.43230942 1.3125 28.25 C1.27833984 28.99507812 1.24417969 29.74015625 1.20898438 30.5078125 C1.12685946 32.33802492 1.06174347 34.16898669 1 36 C0.01 36 -0.98 36 -2 36 C-1.505 35.505 -1.505 35.505 -1 35 C-0.90090698 32.66839945 -0.87029496 30.33370058 -0.875 28 C-0.87242188 26.72125 -0.86984375 25.4425 -0.8671875 24.125 C-0.64139107 21.13312756 -0.64139107 21.13312756 -2 20 C-4.18292774 19.76518307 -6.37203174 19.58636677 -8.5625 19.4375 C-9.76003906 19.35371094 -10.95757812 19.26992187 -12.19140625 19.18359375 C-13.58166016 19.09271484 -13.58166016 19.09271484 -15 19 C-15 18.67 -15 18.34 -15 18 C-10.71 18 -6.42 18 -2 18 C-2 17.34 -2 16.68 -2 16 C-6.62 16 -11.24 16 -16 16 C-16.33 15.34 -16.66 14.68 -17 14 C-11.72 14 -6.44 14 -1 14 C-0.67 9.38 -0.34 4.76 0 0 Z " fill="#C7D8E3" transform="translate(57,78)"/>
<path d="M0 0 C1.8871875 0.00773437 1.8871875 0.00773437 3.8125 0.015625 C5.070625 0.01046875 6.32875 0.0053125 7.625 0 C10.8125 0.265625 10.8125 0.265625 12.8125 2.265625 C13.0078125 5.5234375 13.0078125 5.5234375 12.9375 9.390625 C12.91945313 10.67195313 12.90140625 11.95328125 12.8828125 13.2734375 C12.85960938 14.26085937 12.83640625 15.24828125 12.8125 16.265625 C12.4825 16.265625 12.1525 16.265625 11.8125 16.265625 C11.3175 9.830625 11.3175 9.830625 10.8125 3.265625 C9.8225 3.265625 8.8325 3.265625 7.8125 3.265625 C7.4825 3.925625 7.1525 4.585625 6.8125 5.265625 C3.78186513 4.67633489 0.8107175 4.01517938 -2.1875 3.265625 C-1.8575 7.555625 -1.5275 11.845625 -1.1875 16.265625 C-2.5075 16.595625 -3.8275 16.925625 -5.1875 17.265625 C-5.24133848 14.80700099 -5.28109038 12.3495495 -5.3125 9.890625 C-5.32925781 9.19195312 -5.34601562 8.49328125 -5.36328125 7.7734375 C-5.38094267 5.93665014 -5.29053261 4.09960537 -5.1875 2.265625 C-3.1875 0.265625 -3.1875 0.265625 0 0 Z " fill="#325B79" transform="translate(44.1875,96.734375)"/>
<path d="M0 0 C0.28875 0.639375 0.5775 1.27875 0.875 1.9375 C1.82823451 4.15206079 1.82823451 4.15206079 4 5 C3.938125 6.2375 3.87625 7.475 3.8125 8.75 C3.79637174 11.78211302 3.89348977 12.82248296 5.5 15.5 C5.995 15.995 6.49 16.49 7 17 C5.02 16.34 3.04 15.68 1 15 C0.875 8.25 0.875 8.25 2 6 C1.34 6 0.68 6 0 6 C-0.66 7.65 -1.32 9.3 -2 11 C-2.66 9.68 -3.32 8.36 -4 7 C-4.66 7 -5.32 7 -6 7 C-7.04976964 10.14930893 -7.10131595 12.38814456 -7.0625 15.6875 C-7.05347656 16.68136719 -7.04445313 17.67523438 -7.03515625 18.69921875 C-7.02355469 19.45847656 -7.01195313 20.21773437 -7 21 C-9 20 -9 20 -10 17 C-10.11687338 15.52413385 -10.17501742 14.04293388 -10.1875 12.5625 C-10.20167969 11.80066406 -10.21585937 11.03882812 -10.23046875 10.25390625 C-9.82975892 6.33509991 -8.4315965 4.39839677 -5.5625 1.75 C-3 0 -3 0 0 0 Z M-4 4 C-3.67 4.99 -3.34 5.98 -3 7 C-2.67 6.01 -2.34 5.02 -2 4 C-2.66 4 -3.32 4 -4 4 Z " fill="#316886" transform="translate(121,79)"/>
<path d="M0 0 C1.49544981 2.99089963 1.05405455 5.74152346 1 9.0625 C0.9624415 11.37469498 0.95323333 13.68797294 1 16 C2.87824891 17.87824891 6.03935276 17.39102397 8.5625 17.5625 C9.76003906 17.64628906 10.95757812 17.73007813 12.19140625 17.81640625 C13.58166016 17.90728516 13.58166016 17.90728516 15 18 C15 18.66 15 19.32 15 20 C10.38 20.33 5.76 20.66 1 21 C0.34 19.68 -0.32 18.36 -1 17 C-3.75641416 17.49756092 -3.75641416 17.49756092 -6 19 C-8.9375 19.25 -8.9375 19.25 -12 19 C-12.66 18.01 -13.32 17.02 -14 16 C-12.700625 16.020625 -11.40125 16.04125 -10.0625 16.0625 C-8.70834367 16.08399454 -7.35243917 16.07148199 -6 16 C-4.05909174 14.05909174 -4.60080565 10.52706098 -4.4375 7.9375 C-4.35371094 6.64714844 -4.26992188 5.35679688 -4.18359375 4.02734375 C-4.12300781 3.02832031 -4.06242187 2.02929688 -4 1 C-3.01 1 -2.02 1 -1 1 C-0.67 0.67 -0.34 0.34 0 0 Z " fill="#D1E5F0" transform="translate(61,119)"/>
<path d="M0 0 C0.66 1.32 1.32 2.64 2 4 C-0.97 4 -3.94 4 -7 4 C-7.04241723 6.33294775 -7.04092937 8.66702567 -7 11 C-5.93354885 12.29633621 -5.93354885 12.29633621 -3.4375 12.0625 C-2.633125 12.041875 -1.82875 12.02125 -1 12 C-0.67 11.01 -0.34 10.02 0 9 C-0.99 8.67 -1.98 8.34 -3 8 C-1.02 8 0.96 8 3 8 C2.25 12.75 2.25 12.75 0 15 C-4.07556208 15.23200543 -7.84987232 14.8795094 -11.125 12.375 C-12.39932486 8.91611824 -11.89921842 6.53264379 -11 3 C-8.64233488 -1.29927169 -4.33726788 -0.21330826 0 0 Z " fill="#476A7E" transform="translate(147,139)"/>
<path d="M0 0 C1.38294718 0.01329757 2.76582404 0.03715018 4.1484375 0.0703125 C4.85484375 0.07933594 5.56125 0.08835937 6.2890625 0.09765625 C8.03399848 0.12123647 9.77876045 0.15710789 11.5234375 0.1953125 C13.00864475 3.16572699 12.6940197 5.89295697 12.7109375 9.1953125 C12.72511719 10.4534375 12.73929688 11.7115625 12.75390625 13.0078125 C12.5234375 16.1953125 12.5234375 16.1953125 10.5234375 18.1953125 C5.64752987 18.67197964 1.40010739 17.5893965 -2.5390625 14.6953125 C-5.28568351 12.07584987 -5.94154233 10.22421917 -6.0390625 6.4453125 C-5.79455461 1.8075499 -4.93902661 0.2774734 0 0 Z M-3.4765625 2.1953125 C-3.54836214 3.71459288 -3.56048257 5.23698732 -3.5390625 6.7578125 C-3.53003906 7.58410156 -3.52101562 8.41039063 -3.51171875 9.26171875 C-3.50011719 9.89980469 -3.48851562 10.53789062 -3.4765625 11.1953125 C-2.5071875 11.6696875 -1.5378125 12.1440625 -0.5390625 12.6328125 C2.5234375 14.1953125 2.5234375 14.1953125 3.5234375 15.1953125 C7.66620625 15.44264387 7.66620625 15.44264387 11.5234375 14.1953125 C11.55030303 12.21621852 11.56977125 10.23702279 11.5859375 8.2578125 C11.59753906 7.15566406 11.60914063 6.05351563 11.62109375 4.91796875 C11.83606321 2.28083616 11.83606321 2.28083616 10.5234375 1.1953125 C8.35862953 1.0963831 6.19049965 1.0656015 4.0234375 1.0703125 C2.8375 1.06773438 1.6515625 1.06515625 0.4296875 1.0625 C-2.36915672 0.86321031 -2.36915672 0.86321031 -3.4765625 2.1953125 Z " fill="#7E94AC" transform="translate(44.4765625,117.8046875)"/>
<path d="M0 0 C1.32 0 2.64 0 4 0 C4.65134925 1.56020867 5.29582964 3.12328579 5.9375 4.6875 C6.29714844 5.55761719 6.65679687 6.42773438 7.02734375 7.32421875 C7.9570312 9.88179265 8.54162625 12.3221323 9 15 C8.46375 14.690625 7.9275 14.38125 7.375 14.0625 C4.6015043 12.82172561 1.99957163 12.4090325 -1 12 C-1.33 12.99 -1.66 13.98 -2 15 C-2.66 15 -3.32 15 -4 15 C-3.34728444 11.48294042 -2.48606976 8.10674923 -1.4375 4.6875 C-1.16808594 3.80449219 -0.89867187 2.92148438 -0.62109375 2.01171875 C-0.41613281 1.34785156 -0.21117187 0.68398437 0 0 Z " fill="#2D5670" transform="translate(178,139)"/>
<path d="M0 0 C0.66 0 1.32 0 2 0 C2 14.52 2 29.04 2 44 C1.34 44 0.68 44 0 44 C0.020625 42.948125 0.04125 41.89625 0.0625 40.8125 C0.06904813 37.09970862 -0.18398012 33.44876791 -0.5 29.75 C-1.31000358 19.72909851 -1.10117345 9.98921631 0 0 Z " fill="#0F4D6A" transform="translate(176,82)"/>
<path d="M0 0 C0.69416016 -0.01224609 1.38832031 -0.02449219 2.10351562 -0.03710938 C3.92470901 -0.04239842 5.7453692 0.06580793 7.5625 0.1875 C9.5625 2.1875 9.5625 2.1875 9.7578125 5.6640625 C9.74451493 7.04700968 9.72066232 8.42988654 9.6875 9.8125 C9.67847656 10.51890625 9.66945313 11.2253125 9.66015625 11.953125 C9.63657603 13.69806098 9.60070461 15.44282295 9.5625 17.1875 C6.59208551 18.67270725 3.86485553 18.3580822 0.5625 18.375 C-1.3246875 18.39626953 -1.3246875 18.39626953 -3.25 18.41796875 C-6.4375 18.1875 -6.4375 18.1875 -8.4375 16.1875 C-8.60913731 13.62457683 -8.67014558 11.18404143 -8.625 8.625 C-8.62435547 7.92697266 -8.62371094 7.22894531 -8.62304688 6.50976562 C-8.55942878 -0.77804055 -6.59138036 0.00608622 0 0 Z M-7.4375 2.1875 C-7.56312235 3.95497729 -7.61326558 5.72810292 -7.625 7.5 C-7.63917969 8.46550781 -7.65335937 9.43101563 -7.66796875 10.42578125 C-7.43623224 13.20269158 -6.85890844 14.82223141 -5.4375 17.1875 C-3.64543453 17.04665204 -1.85385083 16.89966299 -0.0625 16.75 C0.93523437 16.66878906 1.93296875 16.58757812 2.9609375 16.50390625 C5.54177613 16.33784374 5.54177613 16.33784374 7.5625 15.1875 C7.5625 10.5675 7.5625 5.9475 7.5625 1.1875 C5.273125 1.166875 2.98375 1.14625 0.625 1.125 C-1.30666016 1.10759766 -1.30666016 1.10759766 -3.27734375 1.08984375 C-6.30048403 0.82217451 -6.30048403 0.82217451 -7.4375 2.1875 Z " fill="#587E95" transform="translate(90.4375,96.8125)"/>
<path d="M0 0 C2.12472576 -0.05386629 4.24983652 -0.09273071 6.375 -0.125 C7.55835937 -0.14820312 8.74171875 -0.17140625 9.9609375 -0.1953125 C13 0 13 0 15 2 C15.14497985 4.58064129 15.18677545 7.04943884 15.125 9.625 C15.11597656 10.33140625 15.10695313 11.0378125 15.09765625 11.765625 C15.07407603 13.51056098 15.03820461 15.25532295 15 17 C11.99686252 18.50156874 9.20932478 18.09281204 5.875 18.0625 C4.59367187 18.05347656 3.31234375 18.04445312 1.9921875 18.03515625 C0.51105469 18.01775391 0.51105469 18.01775391 -1 18 C-1 17.67 -1 17.34 -1 17 C2.96 16.34 6.92 15.68 11 15 C11 11.04 11 7.08 11 3 C8.72135417 2.8046875 6.44270833 2.609375 4.1640625 2.4140625 C2 2 2 2 0 0 Z " fill="#3D6A85" transform="translate(85,118)"/>
<path d="M0 0 C0.70253906 0.00386719 1.40507813 0.00773437 2.12890625 0.01171875 C2.83144531 0.00785156 3.53398438 0.00398438 4.2578125 0 C9.50229247 0.01010497 9.50229247 0.01010497 10.62890625 1.13671875 C10.70204192 3.66721277 10.72138152 6.16976712 10.69140625 8.69921875 C10.68689453 9.41013672 10.68238281 10.12105469 10.67773438 10.85351562 C10.66591489 12.61461888 10.64797888 14.37567911 10.62890625 16.13671875 C9.30890625 15.80671875 7.98890625 15.47671875 6.62890625 15.13671875 C6.79390625 14.47671875 6.95890625 13.81671875 7.12890625 13.13671875 C7.75073924 9.40572081 7.69299551 5.91798497 7.62890625 2.13671875 C3.99890625 2.46671875 0.36890625 2.79671875 -3.37109375 3.13671875 C-3.70109375 6.43671875 -4.03109375 9.73671875 -4.37109375 13.13671875 C-5.03109375 13.13671875 -5.69109375 13.13671875 -6.37109375 13.13671875 C-6.39795928 11.15762477 -6.4174275 9.17842904 -6.43359375 7.19921875 C-6.44519531 6.09707031 -6.45679688 4.99492188 -6.46875 3.859375 C-6.2974432 -0.9166587 -4.26897666 0.00822539 0 0 Z " fill="#8497AD" transform="translate(46.37109375,75.86328125)"/>
<path d="M0 0 C11.88 0 23.76 0 36 0 C35.67 0.66 35.34 1.32 35 2 C29.72 2 24.44 2 19 2 C19 6.95 19 11.9 19 17 C18.34 16.34 17.68 15.68 17 15 C16.34 15.66 15.68 16.32 15 17 C14.67 12.05 14.34 7.1 14 2 C7.07 1.505 7.07 1.505 0 1 C0 0.67 0 0.34 0 0 Z " fill="#C0D7E4" transform="translate(63,75)"/>
<path d="M0 0 C4.62 0 9.24 0 14 0 C13.67 0.99 13.34 1.98 13 3 C9.37 3.33 5.74 3.66 2 4 C2 7.63 2 11.26 2 15 C3.60875 15.12375 5.2175 15.2475 6.875 15.375 C11.75 15.75 11.75 15.75 14 18 C11.68756208 18.02685412 9.3750373 18.04632841 7.0625 18.0625 C5.77472656 18.07410156 4.48695312 18.08570313 3.16015625 18.09765625 C0 18 0 18 -1 17 C-1.09956009 14.7101179 -1.1296872 12.41704063 -1.125 10.125 C-1.12757812 8.86945313 -1.13015625 7.61390625 -1.1328125 6.3203125 C-1 3 -1 3 0 0 Z " fill="#335E7A" transform="translate(62,118)"/>
<path d="M0 0 C2.52090778 -0.0272367 5.04151457 -0.04695207 7.5625 -0.0625 C8.61920898 -0.07506836 8.61920898 -0.07506836 9.69726562 -0.08789062 C14.24024798 -0.10882603 18.51784892 0.25199318 23 1 C23 5.62 23 10.24 23 15 C20.36 15 17.72 15 15 15 C15 14.01 15 13.02 15 12 C17.475 12.495 17.475 12.495 20 13 C20 9.37 20 5.74 20 2 C13.4 1.67 6.8 1.34 0 1 C0 0.67 0 0.34 0 0 Z " fill="#B4CCDD" transform="translate(126,76)"/>
<path d="M0 0 C2.64 0 5.28 0 8 0 C8 0.99 8 1.98 8 3 C7.34 3 6.68 3 6 3 C6 6.96 6 10.92 6 15 C4.68 15 3.36 15 2 15 C2 11.04 2 7.08 2 3 C1.34 3 0.68 3 0 3 C0 2.01 0 1.02 0 0 Z " fill="#51728B" transform="translate(162,139)"/>
<path d="M0 0 C0.33 0 0.66 0 1 0 C1.06058594 0.74765625 1.12117188 1.4953125 1.18359375 2.265625 C1.26738281 3.25046875 1.35117188 4.2353125 1.4375 5.25 C1.51871094 6.22453125 1.59992188 7.1990625 1.68359375 8.203125 C1.91773749 10.92074826 1.91773749 10.92074826 2.59765625 13.171875 C3 15 3 15 2 18 C1.77548542 20.22574335 1.59217122 22.45581519 1.4375 24.6875 C1.35371094 25.86699219 1.26992187 27.04648438 1.18359375 28.26171875 C1.12300781 29.16535156 1.06242187 30.06898437 1 31 C0.34 31 -0.32 31 -1 31 C-1.06058594 30.11957031 -1.12117188 29.23914063 -1.18359375 28.33203125 C-1.26738281 27.17058594 -1.35117188 26.00914063 -1.4375 24.8125 C-1.51871094 23.66394531 -1.59992188 22.51539062 -1.68359375 21.33203125 C-1.90980239 18.08431855 -1.90980239 18.08431855 -2.66015625 15.32421875 C-3.07808167 12.46599317 -2.37691923 11.48040769 -1 9 C-0.55188863 6.64435404 -0.55188863 6.64435404 -0.375 4.25 C-0.30023438 3.45078125 -0.22546875 2.6515625 -0.1484375 1.828125 C-0.09945312 1.22484375 -0.05046875 0.6215625 0 0 Z " fill="#EDF9FC" transform="translate(80,81)"/>
<path d="M0 0 C1.485 0.99 1.485 0.99 3 2 C3 2.66 3 3.32 3 4 C6.3 4.33 9.6 4.66 13 5 C12.67 5.99 12.34 6.98 12 8 C12.495 8.391875 12.99 8.78375 13.5 9.1875 C15.45593143 11.55091715 15.24207973 13.01435003 15 16 C13.0625 15.6875 13.0625 15.6875 11 15 C10.67 14.01 10.34 13.02 10 12 C7.99983534 10.79117904 7.99983534 10.79117904 6 10 C6 9.01 6 8.02 6 7 C5.34 7 4.68 7 4 7 C4 6.34 4 5.68 4 5 C3.34 5 2.68 5 2 5 C1.34 3.35 0.68 1.7 0 0 Z " fill="#C5D6E2" transform="translate(21,109)"/>
<path d="M0 0 C3.63 0 7.26 0 11 0 C11.02685095 2.47923801 11.04676547 4.9581884 11.0625 7.4375 C11.07087891 8.14455078 11.07925781 8.85160156 11.08789062 9.58007812 C11.09653588 11.38693559 11.05220011 13.19387603 11 15 C10 16 10 16 6.83984375 16.09765625 C5.55207031 16.08605469 4.26429687 16.07445313 2.9375 16.0625 C1.64714844 16.05347656 0.35679688 16.04445313 -0.97265625 16.03515625 C-1.97167969 16.02355469 -2.97070312 16.01195313 -4 16 C-4 15.34 -4 14.68 -4 14 C0.29 14 4.58 14 9 14 C8.67 13.01 8.34 12.02 8 11 C7.93259135 9.43881572 7.91485544 7.8749748 7.9375 6.3125 C7.94652344 5.50425781 7.95554687 4.69601563 7.96484375 3.86328125 C7.97644531 3.24839844 7.98804688 2.63351563 8 2 C5.36 1.67 2.72 1.34 0 1 C0 0.67 0 0.34 0 0 Z " fill="#778DA5" transform="translate(24,77)"/>
<path d="M0 0 C0.33 0 0.66 0 1 0 C1 4.29 1 8.58 1 13 C5.04238572 13.1081173 9.0818685 13.18738513 13.125 13.25 C14.26710938 13.28351563 15.40921875 13.31703125 16.5859375 13.3515625 C23.02069996 13.42638532 27.12683384 13.40492599 32 9 C32 9.99 32 10.98 32 12 C28.02746904 15.68877875 24.27542359 16.12972819 19.015625 16.09765625 C18.08105469 16.09443359 17.14648438 16.09121094 16.18359375 16.08789062 C14.73146484 16.07532227 14.73146484 16.07532227 13.25 16.0625 C12.26644531 16.05798828 11.28289062 16.05347656 10.26953125 16.04882812 C7.84629209 16.03706483 5.42317727 16.02062684 3 16 C3 15.34 3 14.68 3 14 C1.68 13.67 0.36 13.34 -1 13 C-0.67 8.71 -0.34 4.42 0 0 Z " fill="#C0D5E1" transform="translate(110,118)"/>
<path d="M0 0 C1.64574566 -0.02688151 3.29161413 -0.04634123 4.9375 -0.0625 C5.85402344 -0.07410156 6.77054688 -0.08570312 7.71484375 -0.09765625 C10 0 10 0 11 1 C11.07271741 3.35313555 11.08370868 5.70833668 11.0625 8.0625 C11.05347656 9.35285156 11.04445313 10.64320313 11.03515625 11.97265625 C11.02355469 12.97167969 11.01195313 13.97070312 11 15 C7.73086376 16.03115279 5.13958652 15.9638984 1.75 15.5625 C0.41195312 15.40974609 0.41195312 15.40974609 -0.953125 15.25390625 C-1.62859375 15.17011719 -2.3040625 15.08632812 -3 15 C-3 14.67 -3 14.34 -3 14 C0.63 14 4.26 14 8 14 C8 9.71 8 5.42 8 1 C5.36 1 2.72 1 0 1 C0 0.67 0 0.34 0 0 Z " fill="#1A4B6A" transform="translate(67,119)"/>
<path d="M0 0 C0.33 0 0.66 0 1 0 C1 4.29 1 8.58 1 13 C1.66 13 2.32 13 3 13 C3 13.99 3 14.98 3 16 C2.34 16 1.68 16 1 16 C0.67 17.65 0.34 19.3 0 21 C-0.66 20.67 -1.32 20.34 -2 20 C-4.55157655 19.9283265 -7.07472971 19.90691558 -9.625 19.9375 C-10.68460937 19.94426758 -10.68460937 19.94426758 -11.765625 19.95117188 C-13.51045275 19.96296125 -15.255237 19.98089676 -17 20 C-16.67 18.68 -16.34 17.36 -16 16 C-8.08 15.505 -8.08 15.505 0 15 C0 10.05 0 5.1 0 0 Z " fill="#D3E7F1" transform="translate(100,99)"/>
<path d="M0 0 C1.32 0.33 2.64 0.66 4 1 C4 1.66 4 2.32 4 3 C4.99 3 5.98 3 7 3 C7.33 4.98 7.66 6.96 8 9 C6.35 9.33 4.7 9.66 3 10 C3 9.34 3 8.68 3 8 C1.68 7.67 0.36 7.34 -1 7 C-1.625 5.1875 -1.625 5.1875 -2 3 C-1.34 2.01 -0.68 1.02 0 0 Z " fill="#10537C" transform="translate(120,95)"/>
<path d="M0 0 C0.33 0 0.66 0 1 0 C1.495 6.93 1.495 6.93 2 14 C5.84747723 14.96186931 9.30167852 15.30659027 13.25 15.5625 C14.51328125 15.64628906 15.7765625 15.73007813 17.078125 15.81640625 C18.04234375 15.87699219 19.0065625 15.93757812 20 16 C20 16.33 20 16.66 20 17 C13.4 17 6.8 17 0 17 C-0.33 18.32 -0.66 19.64 -1 21 C-1.33 19.68 -1.66 18.36 -2 17 C-6.29 17 -10.58 17 -15 17 C-15 16.67 -15 16.34 -15 16 C-14.07316406 15.93941406 -13.14632812 15.87882813 -12.19140625 15.81640625 C-10.99386719 15.73261719 -9.79632813 15.64882812 -8.5625 15.5625 C-6.77005859 15.44068359 -6.77005859 15.44068359 -4.94140625 15.31640625 C-2.11429756 15.32343886 -2.11429756 15.32343886 -1 14 C-0.76472227 11.65012738 -0.58613583 9.29443961 -0.4375 6.9375 C-0.35371094 5.64714844 -0.26992187 4.35679688 -0.18359375 3.02734375 C-0.12300781 2.02832031 -0.06242187 1.02929688 0 0 Z " fill="#BCD2E2" transform="translate(78,120)"/>
<path d="M0 0 C0.33 0.66 0.66 1.32 1 2 C3.27076842 2.02699725 5.54162821 2.04639453 7.8125 2.0625 C9.70935547 2.07990234 9.70935547 2.07990234 11.64453125 2.09765625 C14.99605237 2.16159116 14.99605237 2.16159116 18 1 C18.33 2.32 18.66 3.64 19 5 C11.41 5 3.82 5 -4 5 C-4 4.01 -4 3.02 -4 2 C-2.68 1.34 -1.36 0.68 0 0 Z " fill="#517388" transform="translate(165,127)"/>
<path d="M0 0 C0.99 0.33 1.98 0.66 3 1 C3 5.62 3 10.24 3 15 C1.68 15 0.36 15 -1 15 C-1.02685412 12.68756208 -1.04632841 10.3750373 -1.0625 8.0625 C-1.07410156 6.77472656 -1.08570312 5.48695313 -1.09765625 4.16015625 C-1 1 -1 1 0 0 Z " fill="#567B8D" transform="translate(128,139)"/>
<path d="M0 0 C0.99 0 1.98 0 3 0 C3 3.96 3 7.92 3 12 C4.32 12 5.64 12 7 12 C7 12.99 7 13.98 7 15 C4.69 15 2.38 15 0 15 C0 10.05 0 5.1 0 0 Z " fill="#426279" transform="translate(192,139)"/>
<path d="M0 0 C1.22589844 0.15275391 1.22589844 0.15275391 2.4765625 0.30859375 C3.41628906 0.43427734 3.41628906 0.43427734 4.375 0.5625 C4.705 1.5525 5.035 2.5425 5.375 3.5625 C2.405 3.2325 -0.565 2.9025 -3.625 2.5625 C-3.625 7.5125 -3.625 12.4625 -3.625 17.5625 C-3.955 17.5625 -4.285 17.5625 -4.625 17.5625 C-4.67398438 16.70785156 -4.72296875 15.85320312 -4.7734375 14.97265625 C-4.84820312 13.86792969 -4.92296875 12.76320312 -5 11.625 C-5.06960937 10.52285156 -5.13921875 9.42070312 -5.2109375 8.28515625 C-5.34757812 7.38667969 -5.48421875 6.48820313 -5.625 5.5625 C-6.285 5.2325 -6.945 4.9025 -7.625 4.5625 C-7.25 2.625 -7.25 2.625 -6.625 0.5625 C-4.10446405 -0.69776798 -2.7707902 -0.35624445 0 0 Z " fill="#EDFAFE" transform="translate(114.625,136.4375)"/>
<path d="M0 0 C1.76923828 0.01353516 1.76923828 0.01353516 3.57421875 0.02734375 C4.47785156 0.03894531 5.38148438 0.05054687 6.3125 0.0625 C6.3125 0.7225 6.3125 1.3825 6.3125 2.0625 C5.29929688 2.24425781 5.29929688 2.24425781 4.265625 2.4296875 C2.92757812 2.68105469 2.92757812 2.68105469 1.5625 2.9375 C0.23992187 3.18113281 0.23992187 3.18113281 -1.109375 3.4296875 C-3.55697744 4.03046264 -5.49349857 4.84247117 -7.6875 6.0625 C-8.3475 5.4025 -9.0075 4.7425 -9.6875 4.0625 C-9.6875 3.0725 -9.6875 2.0825 -9.6875 1.0625 C-6.26517028 -0.07827657 -3.60076783 -0.03565117 0 0 Z " fill="#114A6D" transform="translate(130.6875,77.9375)"/>
<path d="M0 0 C0.66 0.33 1.32 0.66 2 1 C1.01 2.98 0.02 4.96 -1 7 C-1.66 7 -2.32 7 -3 7 C-4.04976964 10.14930893 -4.10131595 12.38814456 -4.0625 15.6875 C-4.05347656 16.68136719 -4.04445313 17.67523438 -4.03515625 18.69921875 C-4.02355469 19.45847656 -4.01195313 20.21773437 -4 21 C-6 20 -6 20 -7 17 C-7.11687338 15.52413385 -7.17501742 14.04293388 -7.1875 12.5625 C-7.20167969 11.80066406 -7.21585937 11.03882812 -7.23046875 10.25390625 C-6.81807566 6.22084165 -5.43119764 4.36959798 -2.375 1.75 C-1.59125 1.1725 -0.8075 0.595 0 0 Z " fill="#5B8096" transform="translate(118,79)"/>
<path d="M0 0 C2.97 0.495 2.97 0.495 6 1 C5.34 1.66 4.68 2.32 4 3 C3.53837573 5.43252661 3.53837573 5.43252661 3.375 8.125 C3.30023438 9.03507813 3.22546875 9.94515625 3.1484375 10.8828125 C3.09945312 11.58148438 3.05046875 12.28015625 3 13 C2.34 13 1.68 13 1 13 C1 12.34 1 11.68 1 11 C-0.65 11 -2.3 11 -4 11 C-3.01 10.67 -2.02 10.34 -1 10 C-1.020625 8.906875 -1.04125 7.81375 -1.0625 6.6875 C-1 3 -1 3 0 0 Z " fill="#CDE2EB" transform="translate(79,138)"/>
<path d="M0 0 C4.875 0.875 4.875 0.875 6 2 C6.04080783 3.99958364 6.04254356 6.00045254 6 8 C4.02 8.33 2.04 8.66 0 9 C0 6.03 0 3.06 0 0 Z " fill="#D0E4EF" transform="translate(114,142)"/>
<path d="M0 0 C0.83265381 0.04713135 1.66530762 0.0942627 2.52319336 0.14282227 C3.871875 0.21533203 3.871875 0.21533203 5.24780273 0.28930664 C6.19333008 0.34538086 7.13885742 0.40145508 8.11303711 0.45922852 C9.53712891 0.53753906 9.53712891 0.53753906 10.98999023 0.61743164 C13.34380663 0.74754209 15.6972441 0.88251963 18.05053711 1.02172852 C18.05053711 1.68172852 18.05053711 2.34172852 18.05053711 3.02172852 C16.77436523 2.99852539 15.49819336 2.97532227 14.18334961 2.95141602 C12.51408461 2.93266023 10.84481331 2.91445983 9.17553711 2.89672852 C8.3337793 2.8799707 7.49202148 2.86321289 6.62475586 2.84594727 C5.41625977 2.8362793 5.41625977 2.8362793 4.18334961 2.82641602 C3.43972168 2.81594238 2.69609375 2.80546875 1.92993164 2.79467773 C-0.19436524 2.85516882 -0.19436524 2.85516882 -1.94946289 5.02172852 C-2.51196289 3.08422852 -2.51196289 3.08422852 -2.94946289 1.02172852 C-1.94946289 0.02172852 -1.94946289 0.02172852 0 0 Z " fill="#EEF6FB" transform="translate(79.949462890625,135.978271484375)"/>
<path d="M0 0 C2.29141286 -0.05384521 4.58318188 -0.09272087 6.875 -0.125 C8.78925781 -0.15980469 8.78925781 -0.15980469 10.7421875 -0.1953125 C14 0 14 0 16 2 C16.1953125 5.2578125 16.1953125 5.2578125 16.125 9.125 C16.10695313 10.40632813 16.08890625 11.68765625 16.0703125 13.0078125 C16.04710938 13.99523437 16.02390625 14.98265625 16 16 C15.67 16 15.34 16 15 16 C14.67 11.71 14.34 7.42 14 3 C13.01 3 12.02 3 11 3 C10.67 3.66 10.34 4.32 10 5 C8.35 4.67 6.7 4.34 5 4 C6.32 3.34 7.64 2.68 9 2 C5.7 2 2.4 2 -1 2 C-0.67 1.34 -0.34 0.68 0 0 Z " fill="#3F6B86" transform="translate(41,97)"/>
<path d="M0 0 C12.54 0 25.08 0 38 0 C38 0.33 38 0.66 38 1 C31.37522279 2.01431996 24.94331917 2.08526521 18.25 2 C16.21359539 1.97444913 14.17712758 1.95343092 12.140625 1.9375 C11.24891602 1.92589844 10.35720703 1.91429688 9.43847656 1.90234375 C7.1391764 1.99442626 5.19981626 2.34990886 3 3 C3 2.34 3 1.68 3 1 C2.01 0.67 1.02 0.34 0 0 Z " fill="#0A4466" transform="translate(154,79)"/>
<path d="M0 0 C0 0.99 0 1.98 0 3 C0.66 3 1.32 3 2 3 C1.814375 3.886875 1.62875 4.77375 1.4375 5.6875 C1.01957516 8.85178811 1.19222258 10.94839642 2 14 C0.68 14 -0.64 14 -2 14 C-2 10.04 -2 6.08 -2 2 C-3.32 2.33 -4.64 2.66 -6 3 C-6 2.34 -6 1.68 -6 1 C-3 0 -3 0 0 0 Z " fill="#DDEEF6" transform="translate(197,137)"/>
<path d="M0 0 C1.27617188 0.02320312 2.55234375 0.04640625 3.8671875 0.0703125 C5.78917969 0.09738281 5.78917969 0.09738281 7.75 0.125 C9.23113281 0.15980469 9.23113281 0.15980469 10.7421875 0.1953125 C10.7421875 0.8553125 10.7421875 1.5153125 10.7421875 2.1953125 C9.34678609 2.36555755 7.95083841 2.5313274 6.5546875 2.6953125 C5.38873047 2.83453125 5.38873047 2.83453125 4.19921875 2.9765625 C1.72226964 3.19708579 -0.77106615 3.1953125 -3.2578125 3.1953125 C-3.5878125 7.4853125 -3.9178125 11.7753125 -4.2578125 16.1953125 C-4.5878125 16.1953125 -4.9178125 16.1953125 -5.2578125 16.1953125 C-5.31165771 13.90389964 -5.35053337 11.61213062 -5.3828125 9.3203125 C-5.40601563 8.04414062 -5.42921875 6.76796875 -5.453125 5.453125 C-5.18498778 0.98059624 -4.47252876 0.26813722 0 0 Z " fill="#90A5B9" transform="translate(65.2578125,96.8046875)"/>
<path d="M0 0 C0.99 0 1.98 0 3 0 C3 4.95 3 9.9 3 15 C2.01 15 1.02 15 0 15 C0 10.05 0 5.1 0 0 Z " fill="#4A6679" transform="translate(155,139)"/>
<path d="M0 0 C0.66 0.33 1.32 0.66 2 1 C2 5.95 2 10.9 2 16 C-2.29 16 -6.58 16 -11 16 C-11 15.67 -11 15.34 -11 15 C-5.555 14.505 -5.555 14.505 0 14 C0 9.38 0 4.76 0 0 Z " fill="#446D87" transform="translate(98,98)"/>
<path d="M0 0 C1.98 0 3.96 0 6 0 C5.25 4.75 5.25 4.75 3 7 C0.8359375 6.9765625 0.8359375 6.9765625 -1.625 6.625 C-2.44226563 6.51414063 -3.25953125 6.40328125 -4.1015625 6.2890625 C-4.72804687 6.19367188 -5.35453125 6.09828125 -6 6 C-6.33 4.68 -6.66 3.36 -7 2 C-6.443125 2.33 -5.88625 2.66 -5.3125 3 C-2.69715478 4.1309601 -0.8193354 4.15662974 2 4 C2.33 3.01 2.66 2.02 3 1 C2.01 0.67 1.02 0.34 0 0 Z " fill="#2D5067" transform="translate(144,147)"/>
<path d="M0 0 C2.475 0.99 2.475 0.99 5 2 C5 2.66 5 3.32 5 4 C6.5778125 3.9071875 6.5778125 3.9071875 8.1875 3.8125 C12.15771181 4.00775632 13.87827995 4.63506057 17 7 C17 7.33 17 7.66 17 8 C11.30172207 8.59981873 5.86264584 6.96703814 1 4 C0.20703125 1.859375 0.20703125 1.859375 0 0 Z " fill="#6F88A3" transform="translate(61,140)"/>
<path d="M0 0 C0.33 0 0.66 0 1 0 C1.08075665 2.29109597 1.13907731 4.58299267 1.1875 6.875 C1.22230469 8.15117188 1.25710937 9.42734375 1.29296875 10.7421875 C1.19628906 11.81726563 1.09960938 12.89234375 1 14 C-2 16 -2 16 -4.6875 15.625 C-5.450625 15.41875 -6.21375 15.2125 -7 15 C-7.66 12.03 -8.32 9.06 -9 6 C-8.01 6.495 -8.01 6.495 -7 7 C-6.5978125 8.2375 -6.5978125 8.2375 -6.1875 9.5 C-5.795625 10.325 -5.40375 11.15 -5 12 C-3.35 12.33 -1.7 12.66 0 13 C0 8.71 0 4.42 0 0 Z " fill="#E6F6FC" transform="translate(197,78)"/>
<path d="M0 0 C0.99 0 1.98 0 3 0 C3.02693575 2.12493141 3.04636628 4.24995912 3.0625 6.375 C3.07410156 7.55835937 3.08570312 8.74171875 3.09765625 9.9609375 C3 13 3 13 2 15 C1.34 15 0.68 15 0 15 C0 10.05 0 5.1 0 0 Z " fill="#25546E" transform="translate(82,120)"/>
<path d="M0 0 C4.95 0 9.9 0 15 0 C15 0.99 15 1.98 15 3 C10.05 3 5.1 3 0 3 C0 2.01 0 1.02 0 0 Z " fill="#D9E9F4" transform="translate(41,115)"/>
<path d="M0 0 C4.875 0.875 4.875 0.875 6 2 C6.07271741 4.35313555 6.08370868 6.70833668 6.0625 9.0625 C6.05347656 10.35285156 6.04445312 11.64320312 6.03515625 12.97265625 C6.02355469 13.97167969 6.01195312 14.97070312 6 16 C5.34 16 4.68 16 4 16 C4 12.04 4 8.08 4 4 C3.34 4 2.68 4 2 4 C1.34 2.68 0.68 1.36 0 0 Z " fill="#2D5A75" transform="translate(140,106)"/>
<path d="M0 0 C4.29 0 8.58 0 13 0 C13.33 0.99 13.66 1.98 14 3 C9.38 3 4.76 3 0 3 C0 2.01 0 1.02 0 0 Z " fill="#E5EFFC" transform="translate(20,94)"/>
<path d="M0 0 C9.23014257 2.93686354 9.23014257 2.93686354 11.3125 5.8125 C12.17031512 8.54191176 11.75644808 10.27678692 11 13 C10.34 13 9.68 13 9 13 C8.71125 11.88625 8.4225 10.7725 8.125 9.625 C7.30758671 5.99708908 7.30758671 5.99708908 5 4 C3.9790625 3.7834375 3.9790625 3.7834375 2.9375 3.5625 C2.298125 3.376875 1.65875 3.19125 1 3 C0.67 2.01 0.34 1.02 0 0 Z " fill="#547D96" transform="translate(126,109)"/>
<path d="M0 0 C0.99 0.495 0.99 0.495 2 1 C2 1.66 2 2.32 2 3 C3.7492214 3.08142927 5.49954542 3.13938541 7.25 3.1875 C8.22453125 3.22230469 9.1990625 3.25710937 10.203125 3.29296875 C13.37468742 2.96075202 14.67040307 2.11327721 17 0 C15.70846731 2.88111138 14.5652085 5.10984637 12 7 C9.30078125 6.85546875 9.30078125 6.85546875 6.3125 6.1875 C5.31863281 5.97480469 4.32476562 5.76210937 3.30078125 5.54296875 C2.54152344 5.36378906 1.78226562 5.18460938 1 5 C0.67 3.35 0.34 1.7 0 0 Z " fill="#4E7893" transform="translate(118,123)"/>
<path d="M0 0 C1.65 0 3.3 0 5 0 C5 0.66 5 1.32 5 2 C5.99 2.33 6.98 2.66 8 3 C7.38125 3.4125 6.7625 3.825 6.125 4.25 C3.93231719 6.05573879 3.07211583 7.4090534 2 10 C-0.09350689 6.5980513 -0.17942163 3.94727588 0 0 Z " fill="#19557C" transform="translate(152,80)"/>
<path d="M0 0 C2.19510603 0.25361783 4.38228739 0.57765908 6.5625 0.9375 C8.35880859 1.22947266 8.35880859 1.22947266 10.19140625 1.52734375 C11.11824219 1.68332031 12.04507813 1.83929688 13 2 C12.67 2.99 12.34 3.98 12 5 C9.03 4.67 6.06 4.34 3 4 C3 3.34 3 2.68 3 2 C1.68 1.67 0.36 1.34 -1 1 C-0.67 0.67 -0.34 0.34 0 0 Z " fill="#5F7FA0" transform="translate(63,140)"/>
<path d="M0 0 C0.33 0 0.66 0 1 0 C1 2.64 1 5.28 1 8 C4.465 7.505 4.465 7.505 8 7 C8.33 7.66 8.66 8.32 9 9 C9.99 9.66 10.98 10.32 12 11 C7.83861737 11.08159574 4.0527516 10.98248524 0 10 C0 6.7 0 3.4 0 0 Z " fill="#48738B" transform="translate(82,141)"/>
<path d="M0 0 C1.98 0.495 1.98 0.495 4 1 C4.06058594 1.62648438 4.12117188 2.25296875 4.18359375 2.8984375 C4.26738281 3.71570313 4.35117187 4.53296875 4.4375 5.375 C4.55931641 6.59316406 4.55931641 6.59316406 4.68359375 7.8359375 C4.89090114 10.04272805 4.89090114 10.04272805 6 12 C5.01 11.67 4.02 11.34 3 11 C2.67 10.34 2.34 9.68 2 9 C1.01 8.67 0.02 8.34 -1 8 C-1 7.34 -1 6.68 -1 6 C-0.34 6 0.32 6 1 6 C0.67 4.02 0.34 2.04 0 0 Z " fill="#DEEBF3" transform="translate(35,119)"/>
<path d="M0 0 C0.99 0.495 0.99 0.495 2 1 C4.0374763 1.22858114 6.08040303 1.41024278 8.125 1.5625 C9.76855469 1.68818359 9.76855469 1.68818359 11.4453125 1.81640625 C12.28835937 1.87699219 13.13140625 1.93757813 14 2 C14.33 2.99 14.66 3.98 15 5 C10.05 5.33 5.1 5.66 0 6 C0 4.02 0 2.04 0 0 Z " fill="#D0E7F2" transform="translate(82,92)"/>
<path d="M0 0 C0.99 0 1.98 0 3 0 C3 4.29 3 8.58 3 13 C1.68 13 0.36 13 -1 13 C-1 12.01 -1 11.02 -1 10 C-0.34 10 0.32 10 1 10 C0.67 6.7 0.34 3.4 0 0 Z " fill="#204F67" transform="translate(193,78)"/>
<path d="M0 0 C0.66 0 1.32 0 2 0 C4.125 5.625 4.125 5.625 3 9 C-1.21195335 7.09782752 -1.98355628 5.03288744 -4 1 C-2.02 1.99 -2.02 1.99 0 3 C0 2.01 0 1.02 0 0 Z " fill="#EAEDEC" transform="translate(187,151)"/>
<path d="M0 0 C4.62 0 9.24 0 14 0 C13.67 0.99 13.34 1.98 13 3 C7.06 3.495 7.06 3.495 1 4 C0.67 2.68 0.34 1.36 0 0 Z " fill="#326682" transform="translate(62,118)"/>
<path d="M0 0 C0.33 0 0.66 0 1 0 C1 3.3 1 6.6 1 10 C-3.81449408 9.51855059 -6.60171741 9.1991413 -11 7 C-7.37 7 -3.74 7 0 7 C0 4.69 0 2.38 0 0 Z " fill="#1E4E6C" transform="translate(98,142)"/>
<path d="M0 0 C2.875 -0.125 2.875 -0.125 6 0 C6.66 0.66 7.32 1.32 8 2 C6.68 2 5.36 2 4 2 C4 3.65 4 5.3 4 7 C2.68 6.67 1.36 6.34 0 6 C0 4.02 0 2.04 0 0 Z " fill="#E6F5F9" transform="translate(139,143)"/>
<path d="M0 0 C1.98 0 3.96 0 6 0 C6.33 2.31 6.66 4.62 7 7 C5.0625 6.6875 5.0625 6.6875 3 6 C2.67 5.01 2.34 4.02 2 3 C1.34 2.67 0.68 2.34 0 2 C0 1.34 0 0.68 0 0 Z " fill="#5B748A" transform="translate(29,118)"/>
<path d="M0 0 C1.32 0 2.64 0 4 0 C4.33 1.65 4.66 3.3 5 5 C4.01 5 3.02 5 2 5 C2.33 6.98 2.66 8.96 3 11 C2.01 11 1.02 11 0 11 C0 7.37 0 3.74 0 0 Z " fill="#0E4467" transform="translate(112,119)"/>
<path d="M0 0 C2.31 0 4.62 0 7 0 C6.01 0.66 5.02 1.32 4 2 C3.27617533 4.05925139 3.27617533 4.05925139 3 6 C0.625 6.1875 0.625 6.1875 -2 6 C-2.66 5.01 -3.32 4.02 -4 3 C-2.68 3.33 -1.36 3.66 0 4 C0 2.68 0 1.36 0 0 Z " fill="#8CACC0" transform="translate(143,146)"/>
<path d="M0 0 C4.23039958 1.74192924 8.1273638 3.53559514 12 6 C10 7 10 7 6.5625 6.1875 C3 5 3 5 0 3 C0 2.01 0 1.02 0 0 Z " fill="#46728B" transform="translate(128,96)"/>
<path d="M0 0 C5.28 0.66 10.56 1.32 16 2 C16 2.33 16 2.66 16 3 C11.05 3 6.1 3 1 3 C0.67 2.01 0.34 1.02 0 0 Z " fill="#DDF1F7" transform="translate(84,151)"/>
<path d="M0 0 C0.66 0.33 1.32 0.66 2 1 C2 5.29 2 9.58 2 14 C0.68 14.33 -0.64 14.66 -2 15 C-2 14.34 -2 13.68 -2 13 C-1.34 13 -0.68 13 0 13 C0 8.71 0 4.42 0 0 Z " fill="#748EA6" transform="translate(33,99)"/>
<path d="M0 0 C0.99 0 1.98 0 3 0 C2.03928241 3.23150461 1.30588515 4.75851173 -1.375 6.875 C-4 8 -4 8 -6.3125 7.6875 C-6.869375 7.460625 -7.42625 7.23375 -8 7 C-7.05125 6.773125 -6.1025 6.54625 -5.125 6.3125 C-1.80676612 5.30916286 -1.80676612 5.30916286 -0.625 2.375 C-0.41875 1.59125 -0.2125 0.8075 0 0 Z " fill="#1B4A67" transform="translate(142,122)"/>
<path d="M0 0 C0.53625 0.474375 1.0725 0.94875 1.625 1.4375 C4.42842836 3.28186076 6.69620258 3.62456847 10 4 C10 4.33 10 4.66 10 5 C8.35 5.33 6.7 5.66 5 6 C5 6.99 5 7.98 5 9 C4.01 9 3.02 9 2 9 C1.34 6.03 0.68 3.06 0 0 Z " fill="#E5F5F5" transform="translate(136,151)"/>
<path d="M0 0 C3.5625 0.1875 3.5625 0.1875 5.5625 2.1875 C4.428125 2.31125 3.29375 2.435 2.125 2.5625 C0.3615625 2.871875 0.3615625 2.871875 -1.4375 3.1875 C-1.7675 3.8475 -2.0975 4.5075 -2.4375 5.1875 C-3.4275 5.1875 -4.4175 5.1875 -5.4375 5.1875 C-4.31932898 0.23559976 -4.31932898 0.23559976 0 0 Z " fill="#C2DCE9" transform="translate(130.4375,80.8125)"/>
<path d="M0 0 C1.98 0.495 1.98 0.495 4 1 C3.01 1 2.02 1 1 1 C1.7425 2.1446875 1.7425 2.1446875 2.5 3.3125 C4 6 4 6 4 9 C2.68 9 1.36 9 0 9 C-1.10844919 5.67465243 -0.84454356 3.37817425 0 0 Z " fill="#7999AC" transform="translate(178,139)"/>
<path d="M0 0 C1.62580966 0.11398665 3.25067157 0.24155659 4.875 0.375 C5.77992187 0.44460937 6.68484375 0.51421875 7.6171875 0.5859375 C10 1 10 1 12 3 C8.04 3 4.08 3 0 3 C0 2.01 0 1.02 0 0 Z " fill="#0A4467" transform="translate(120,128)"/>
<path d="M0 0 C3.3 0 6.6 0 10 0 C9.67 0.66 9.34 1.32 9 2 C8.34 2 7.68 2 7 2 C6.67 2.66 6.34 3.32 6 4 C4.02 3.34 2.04 2.68 0 2 C0 1.34 0 0.68 0 0 Z " fill="#DCEFF4" transform="translate(111,154)"/>
<path d="M0 0 C0.99 0.33 1.98 0.66 3 1 C3.185625 2.7015625 3.185625 2.7015625 3.375 4.4375 C3.684375 6.2009375 3.684375 6.2009375 4 8 C4.66 8.33 5.32 8.66 6 9 C5.34 9.66 4.68 10.32 4 11 C3.32591692 9.73308493 2.66099503 8.46129251 2 7.1875 C1.62875 6.47980469 1.2575 5.77210938 0.875 5.04296875 C0 3 0 3 0 0 Z " fill="#BED9E7" transform="translate(182,139)"/>
<path d="M0 0 C2.62386487 3.06117568 3 3.73173127 3 8 C2.46375 7.690625 1.9275 7.38125 1.375 7.0625 C-1.3984957 5.82172561 -4.00042837 5.4090325 -7 5 C-7 4.67 -7 4.34 -7 4 C-4.69 4 -2.38 4 0 4 C0 2.68 0 1.36 0 0 Z " fill="#4A6D83" transform="translate(184,146)"/>
<path d="M0 0 C2.05078125 0.03255208 4.1015625 0.06510417 6.15234375 0.09765625 C6.81234375 1.41765625 7.47234375 2.73765625 8.15234375 4.09765625 C6.89421875 3.97390625 5.63609375 3.85015625 4.33984375 3.72265625 C3.27830078 3.61824219 3.27830078 3.61824219 2.1953125 3.51171875 C0.15234375 3.09765625 0.15234375 3.09765625 -2.84765625 1.09765625 C-1.84765625 0.09765625 -1.84765625 0.09765625 0 0 Z " fill="#567080" transform="translate(140.84765625,138.90234375)"/>
<path d="M0 0 C2.375 -0.125 2.375 -0.125 5 0 C5.66 0.66 6.32 1.32 7 2 C6.625 5.125 6.625 5.125 6 8 C5.6596875 7.071875 5.6596875 7.071875 5.3125 6.125 C3.62070165 3.38589791 2.00755839 2.94975528 -1 2 C-0.67 1.34 -0.34 0.68 0 0 Z " fill="#3D5F75" transform="translate(115,140)"/>
<path d="M0 0 C1.22589844 0.15275391 1.22589844 0.15275391 2.4765625 0.30859375 C3.41628906 0.43427734 3.41628906 0.43427734 4.375 0.5625 C4.705 1.5525 5.035 2.5425 5.375 3.5625 C3.74919034 3.44851335 2.12432843 3.32094341 0.5 3.1875 C-0.40492187 3.11789063 -1.30984375 3.04828125 -2.2421875 2.9765625 C-4.625 2.5625 -4.625 2.5625 -6.625 0.5625 C-4.10446405 -0.69776798 -2.7707902 -0.35624445 0 0 Z " fill="#E7F3F8" transform="translate(114.625,136.4375)"/>
<path d="M0 0 C1.81325551 0.11351517 3.62563357 0.24112961 5.4375 0.375 C6.95150391 0.47941406 6.95150391 0.47941406 8.49609375 0.5859375 C9.73552734 0.79089844 9.73552734 0.79089844 11 1 C11.33 1.66 11.66 2.32 12 3 C10.37509046 3.02698189 8.75005367 3.04638757 7.125 3.0625 C5.76761719 3.07990234 5.76761719 3.07990234 4.3828125 3.09765625 C2 3 2 3 0 2 C0 1.34 0 0.68 0 0 Z " fill="#758BA4" transform="translate(40,90)"/>
<path d="M0 0 C0.66 0 1.32 0 2 0 C1.67 1.65 1.34 3.3 1 5 C0.34 5 -0.32 5 -1 5 C-1 7.97 -1 10.94 -1 14 C-1.33 14 -1.66 14 -2 14 C-2 10.37 -2 6.74 -2 3 C-1.34 3 -0.68 3 0 3 C0 2.01 0 1.02 0 0 Z " fill="#CCE0EE" transform="translate(170,139)"/>
<path d="M0 0 C0.33 0.66 0.66 1.32 1 2 C2.66072849 2.68132451 4.327767 3.34742127 6 4 C6.66 4.66 7.32 5.32 8 6 C7.34 6.66 6.68 7.32 6 8 C0.125 4.375 0.125 4.375 -1 1 C-0.67 0.67 -0.34 0.34 0 0 Z " fill="#184A67" transform="translate(128,106)"/>
<path d="M0 0 C1.98 0.495 1.98 0.495 4 1 C4.33 2.32 4.66 3.64 5 5 C2.03 4.505 2.03 4.505 -1 4 C-0.67 2.68 -0.34 1.36 0 0 Z " fill="#0F547E" transform="translate(133,103)"/>
<path d="M0 0 C2.475 0.99 2.475 0.99 5 2 C5 2.66 5 3.32 5 4 C6.32 4.66 7.64 5.32 9 6 C5.26512223 5.5020163 3.18762365 5.12508244 0 3 C0 2.01 0 1.02 0 0 Z " fill="#889FB6" transform="translate(61,140)"/>
<path d="M0 0 C1.32 0 2.64 0 4 0 C4 0.99 4 1.98 4 3 C3.01 3 2.02 3 1 3 C1 3.66 1 4.32 1 5 C-0.65 5 -2.3 5 -4 5 C-4 4.34 -4 3.68 -4 3 C-2.68 3 -1.36 3 0 3 C0 2.01 0 1.02 0 0 Z " fill="#EFF0F0" transform="translate(131,135)"/>
<path d="M0 0 C1.52519276 0.08937803 3.04681929 0.24537146 4.5625 0.4375 C5.80193359 0.59025391 5.80193359 0.59025391 7.06640625 0.74609375 C7.70449219 0.82988281 8.34257812 0.91367188 9 1 C9 1.33 9 1.66 9 2 C6.02148438 2.29296875 6.02148438 2.29296875 3.04296875 2.5859375 C0.70011858 2.92665391 0.70011858 2.92665391 -2 5 C-1.125 1.125 -1.125 1.125 0 0 Z " fill="#DCEEF5" transform="translate(138,137)"/>
<path d="M0 0 C0.66 0.99 1.32 1.98 2 3 C1.67 3.33 1.34 3.66 1 4 C1.66 4.66 2.32 5.32 3 6 C1.35 6 -0.3 6 -2 6 C-2.33 5.34 -2.66 4.68 -3 4 C-2.01 2.68 -1.02 1.36 0 0 Z " fill="#1A5372" transform="translate(134,125)"/>
<path d="M0 0 C2 1 2 1 2.875 3.4375 C3.77050152 6.13605515 3.77050152 6.13605515 6.125 7.3125 C6.74375 7.539375 7.3625 7.76625 8 8 C6.02 8 4.04 8 2 8 C0 2.25 0 2.25 0 0 Z " fill="#96B3C4" transform="translate(188,84)"/>
<path d="M0 0 C2.31 0 4.62 0 7 0 C7.33 0.99 7.66 1.98 8 3 C3.73173127 3 3.06117568 2.62386487 0 0 Z " fill="#366684" transform="translate(132,80)"/>
<path d="M0 0 C1.65 0 3.3 0 5 0 C5 1.65 5 3.3 5 5 C2.5 3.625 2.5 3.625 0 2 C0 1.34 0 0.68 0 0 Z " fill="#53768D" transform="translate(114,100)"/>
</svg>
